0
SECTION
2
HEADER
9
$INSUNITS
70
4
9
$ACADVER
1
AC1014
9
$HANDSEED
5
FFFF
0
ENDSEC
0
SECTION
2
TABLES
0
TABLE
2
VPORT
5
8
100
AcDbSymbolTable
0
ENDTAB
0
TABLE
2
LTYPE
5
5
100
AcDbSymbolTable
0
LTYPE
5
14
100
AcDbSymbolTableRecord
100
AcDbLinetypeTableRecord
2
BYBLOCK
70
0
0
LTYPE
5
15
100
AcDbSymbolTableRecord
100
AcDbLinetypeTableRecord
2
BYLAYER
70
0
0
ENDTAB
0
TABLE
2
LAYER
5
2
100
AcDbSymbolTable
70
2
0
LAYER
5
50
100
AcDbSymbolTableRecord
100
AcDbLayerTableRecord
2
0
70
0
6
CONTINUOUS
0
ENDTAB
0
TABLE
2
STYLE
5
3
100
AcDbSymbolTable
70
1
0
STYLE
5
11
100
AcDbSymbolTableRecord
100
AcDbTextStyleTableRecord
2
STANDARD
70
0
0
ENDTAB
0
TABLE
2
VIEW
5
6
100
AcDbSymbolTable
70
0
0
ENDTAB
0
TABLE
2
UCS
5
7
100
AcDbSymbolTable
70
0
0
ENDTAB
0
TABLE
2
APPID
5
9
100
AcDbSymbolTable
70
2
0
APPID
5
12
100
AcDbSymbolTableRecord
100
AcDbRegAppTableRecord
2
ACAD
70
0
0
ENDTAB
0
TABLE
2
DIMSTYLE
5
A
100
AcDbSymbolTable
70
1
0
ENDTAB
0
TABLE
2
BLOCK_RECORD
5
1
100
AcDbSymbolTable
70
1
0
BLOCK_RECORD
5
1F
100
AcDbSymbolTableRecord
100
AcDbBlockTableRecord
2
*MODEL_SPACE
0
BLOCK_RECORD
5
1B
100
AcDbSymbolTableRecord
100
AcDbBlockTableRecord
2
*PAPER_SPACE
0
ENDTAB
0
ENDSEC
0
SECTION
2
BLOCKS
0
BLOCK
5
20
100
AcDbEntity
100
AcDbBlockBegin
2
*MODEL_SPACE
0
ENDBLK
5
21
100
AcDbEntity
100
AcDbBlockEnd
0
BLOCK
5
1C
100
AcDbEntity
100
AcDbBlockBegin
2
*PAPER_SPACE
0
ENDBLK
5
1D
100
AcDbEntity
100
AcDbBlockEnd
0
ENDSEC
0
SECTION
2
ENTITIES
0
LWPOLYLINE
5
100
100
AcDbEntity
8
0
100
AcDbPolyline
90
8
70
1
43
0.0
10
-14.000000000000005
20
-26.500000000000004
10
14.000000000000002
20
-26.500000000000004
42
0.41421356237309542
10
19
20
-21.500000000000004
10
19
20
21.500000000000004
42
0.4142135623730957
10
14.000000000000011
20
26.500000000000004
10
-13.999999999999996
20
26.500000000000004
42
0.41421356237309465
10
-19
20
21.500000000000004
10
-19
20
-21.500000000000004
42
0.41421356237309542
0
SPLINE
5
101
100
AcDbEntity
8
0
100
AcDbSpline
70
0
71
3
72
9
73
5
74
0
42
0.000000001
43
0.0000000001
44
0.0000000001
40
0
40
0
40
0
40
0
40
0.0027170435343843234
40
0.0080101501822425532
40
0.0080101501822425532
40
0.0080101501822425532
40
0.0080101501822425532
10
-10.534318499267101
20
18.923876500129705
30
0
10
-10.541315674635896
20
18.918119234814498
30
0
10
-10.561944135257246
20
18.901146168601088
30
0
10
-10.580679465755596
20
18.882081570505015
30
0
10
-10.59305977076292
20
18.869483685493474
30
0
0
SPLINE
5
102
100
AcDbEntity
8
0
100
AcDbSpline
70
0
71
3
72
9
73
5
74
0
42
0.000000001
43
0.0000000001
44
0.0000000001
40
0
40
0
40
0
40
0
40
0.0039036188278850944
40
0.007406961082501164
40
0.007406961082501164
40
0.007406961082501164
40
0.007406961082501164
10
-10.59305977076292
20
18.869483685493474
30
0
10
-10.60206801971399
20
18.860033495282234
30
0
10
-10.619160812925621
20
18.842102136150327
30
0
10
-10.632068944248076
20
18.820969759381608
30
0
10
-10.63817422837019
20
18.810974574089055
30
0
0
SPLINE
5
103
100
AcDbEntity
8
0
100
AcDbSpline
70
0
71
3
72
9
73
5
74
0
42
0.000000001
43
0.0000000001
44
0.0000000001
40
0
40
0
40
0
40
0
40
0.001687609760389375
40
0.0041657813251141599
40
0.0041657813251141599
40
0.0041657813251141599
40
0.0041657813251141599
10
-10.63817422837019
20
18.810974574089055
30
0
10
-10.642899407511514
20
18.805270426884213
30
0
10
-10.654563278796669
20
18.791190021295581
30
0
10
-10.655376588657532
20
18.811593801069819
30
0
10
-10.655860416591167
20
18.823731756210332
30
0
0
SPLINE
5
104
100
AcDbEntity
8
0
100
AcDbSpline
70
0
71
3
72
9
73
5
74
0
42
0.000000001
43
0.0000000001
44
0.0000000001
40
0
40
0
40
0
40
0
40
0.018454128098846029
40
0.038856706290807341
40
0.038856706290807341
40
0.038856706290807341
40
0.038856706290807341
10
-10.655860416591167
20
18.823731756210332
30
0
10
-10.599840715091876
20
18.797804273142596
30
0
10
-10.481886560010835
20
18.743211794482722
30
0
10
-10.379536435790726
20
18.663005752521723
30
0
10
-10.325795225799084
20
18.620891785621648
30
0
0
SPLINE
5
105
100
AcDbEntity
8
0
100
AcDbSpline
70
0
71
3
72
9
73
5
74
0
42
0.000000001
43
0.0000000001
44
0.0000000001
40
0
40
0
40
0
40
0
40
0.021125299310547553
40
0.041781236137236312
40
0.041781236137236312
40
0.041781236137236312
40
0.041781236137236312
10
-10.325795225799084
20
18.620891785621648
30
0
10
-10.272885664120388
20
18.574041308344562
30
0
10
-10.168242086866481
20
18.4813812789892
30
0
10
-10.087026770181618
20
18.367642488309208
30
0
10
-10.046875290572643
20
18.311411952972417
30
0
0
SPLINE
5
106
100
AcDbEntity
8
0
100
AcDbSpline
70
0
71
3
72
9
73
5
74
0
42
0.000000001
43
0.0000000001
44
0.0000000001
40
0
40
0
40
0
40
0
40
0.020568031553562214
40
0.041412076684620519
40
0.041412076684620519
40
0.041412076684620519
40
0.041412076684620519
10
-10.046875290572643
20
18.311411952972417
30
0
10
-10.011409030330833
20
18.252464827126659
30
0
10
-9.9400005688538222
20
18.133779531963366
30
0
10
-9.8965317222127229
20
18.002257946689657
30
0
10
-9.8746524378657341
20
17.936058855056768
30
0
0
SPLINE
5
107
100
AcDbEntity
8
0
100
AcDbSpline
70
0
71
3
72
9
73
5
74
0
42
0.000000001
43
0.0000000001
44
0.0000000001
40
0
40
0
40
0
40
0
40
0.021386920171216753
40
0.043590595204935939
40
0.043590595204935939
40
0.043590595204935939
40
0.043590595204935939
10
-9.8746524378657341
20
17.936058855056768
30
0
10
-9.8573519570791923
20
17.86667232587968
30
0
10
-9.8220902995436727
20
17.725249433671742
30
0
10
-9.8176120130950437
20
17.57954494898966
30
0
10
-9.8153309151530266
20
17.505327677726751
30
0
0
SPLINE
5
108
100
AcDbEntity
8
0
100
AcDbSpline
70
0
71
3
72
9
73
5
74
0
42
0.000000001
43
0.0000000001
44
0.0000000001
40
0
40
0
40
0
40
0
40
0.054923371960906305
40
0.1051933348834232
40
0.1051933348834232
40
0.1051933348834232
40
0.1051933348834232
10
-9.8153309151530266
20
17.505327677726751
30
0
10
-9.8293432207984068
20
17.316151075632426
30
0
10
-9.8561806327710819
20
16.953825949812014
30
0
10
-10.109201661030964
20
16.694850597132511
30
0
10
-10.23011576384306
20
16.571091032028203
30
0
0
SPLINE
5
109
100
AcDbEntity
8
0
100
AcDbSpline
70
0
71
3
72
9
73
5
74
0
42
0.000000001
43
0.0000000001
44
0.0000000001
40
0
40
0
40
0
40
0
40
0.059184874392898296
40
0.1177261223734762
40
0.1177261223734762
40
0.1177261223734762
40
0.1177261223734762
10
-10.23011576384306
20
16.571091032028203
30
0
10
-10.384104771457935
20
16.43964425003912
30
0
10
-10.690408179897943
20
16.178180149611741
30
0
10
-11.091144838059417
20
16.139597716704063
30
0
10
-11.290417723357677
20
16.120411968231206
30
0
0
SPLINE
5
110
100
AcDbEntity
8
0
100
AcDbSpline
70
0
71
3
72
9
73
5
74
0
42
0.000000001
43
0.0000000001
44
0.0000000001
40
0
40
0
40
0
40
0
40
0.05423131606382546
40
0.10754770233207531
40
0.10754770233207531
40
0.10754770233207531
40
0.10754770233207531
10
-11.290417723357677
20
16.120411968231206
30
0
10
-11.475136307617021
20
16.136385140420487
30
0
10
-11.841457111850229
20
16.168062003395562
30
0
10
-12.125174037068835
20
16.401651607074395
30
0
10
-12.265825681388378
20
16.517452812194829
30
0
0
SPLINE
5
111
100
AcDbEntity
8
0
100
AcDbSpline
70
0
71
3
72
9
73
5
74
0
42
0.000000001
43
0.0000000001
44
0.0000000001
40
0
40
0
40
0
40
0
40
0.053518787727602157
40
0.10807043860964527
40
0.10807043860964527
40
0.10807043860964527
40
0.10807043860964527
10
-12.265825681388378
20
16.517452812194829
30
0
10
-12.381879829277711
20
16.658773843695517
30
0
10
-12.616227862882365
20
16.944143272031241
30
0
10
-12.6477994790867
20
17.312261122588151
30
0
10
-12.663736157119274
20
17.498079156875615
30
0
0
SPLINE
5
112
100
AcDbEntity
8
0
100
AcDbSpline
70
0
71
3
72
9
73
5
74
0
42
0.000000001
43
0.0000000001
44
0.0000000001
40
0
40
0
40
0
40
0
40
0.04470296268211308
40
0.086986509437483789
40
0.086986509437483789
40
0.086986509437483789
40
0.086986509437483789
10
-12.663736157119274
20
17.498079156875615
30
0
10
-12.655650011979414
20
17.648694269326917
30
0
10
-12.639915360441364
20
17.941772895766931
30
0
10
-12.508214464866935
20
18.203810909318683
30
0
10
-12.444195561110973
20
18.331185793876653
30
0
0
SPLINE
5
113
100
AcDbEntity
8
0
100
AcDbSpline
70
0
71
3
72
9
73
5
74
0
42
0.000000001
43
0.0000000001
44
0.0000000001
40
0
40
0
40
0
40
0
40
0.042523824175829082
40
0.082155152244258109
40
0.082155152244258109
40
0.082155152244258109
40
0.082155152244258109
10
-12.444195561110973
20
18.331185793876653
30
0
10
-12.361128544650565
20
18.449438192885591
30
0
10
-12.200644780171544
20
18.677899391569362
30
0
10
-11.948496012063391
20
18.796773295862209
30
0
10
-11.826860420405865
20
18.854117608070379
30
0
0
SPLINE
5
114
100
AcDbEntity
8
0
100
AcDbSpline
70
0
71
3
72
9
73
5
74
0
42
0.000000001
43
0.0000000001
44
0.0000000001
40
0
40
0
40
0
40
0
40
0.0015732062046312013
40
0.002776812370905774
40
0.002776812370905774
40
0.002776812370905774
40
0.002776812370905774
10
-11.826860420405865
20
18.854117608070379
30
0
10
-11.828170865631321
20
18.846994521920614
30
0
10
-11.830483887600556
20
18.834421806607473
30
0
10
-11.838817746166869
20
18.842943504768307
30
0
10
-11.842430047690868
20
18.846637225151067
30
0
0
SPLINE
5
115
100
AcDbEntity
8
0
100
AcDbSpline
70
0
71
3
72
9
73
5
74
0
42
0.000000001
43
0.0000000001
44
0.0000000001
40
0
40
0
40
0
40
0
40
0.0028340736275613769
40
0.0070588310504960759
40
0.0070588310504960759
40
0.0070588310504960759
40
0.0070588310504960759
10
-11.842430047690868
20
18.846637225151067
30
0
10
-11.847749333786204
20
18.854445503023626
30
0
10
-11.860998086920587
20
18.873893591373093
30
0
10
-11.875120059219208
20
18.892719186207959
30
0
10
-11.883572153747082
20
18.903986430168157
30
0
0
SPLINE
5
116
100
AcDbEntity
8
0
100
AcDbSpline
70
0
71
3
72
9
73
5
74
0
42
0.000000001
43
0.0000000001
44
0.0000000001
40
0
40
0
40
0
40
0
40
0.0029210559405567407
40
0.0059124687948366918
40
0.0059124687948366918
40
0.0059124687948366918
40
0.0059124687948366918
10
-11.883572153747082
20
18.903986430168157
30
0
10
-11.890265325935419
20
18.911074128693524
30
0
10
-11.903812882883088
20
18.925420240925277
30
0
10
-11.919136136831202
20
18.937852945902989
30
0
10
-11.926888935267925
20
18.944143271446233
30
0
0
SPLINE
5
117
100
AcDbEntity
8
0
100
AcDbSpline
70
0
71
3
72
9
73
5
74
0
42
0.000000001
43
0.0000000001
44
0.0000000001
40
0
40
0
40
0
40
0
40
0.001914139070943693
40
0.0030183870890892546
40
0.0030183870890892546
40
0.0030183870890892546
40
0.0030183870890892546
10
-11.926888935267925
20
18.944143271446233
30
0
10
-11.934251744078942
20
18.949397340737111
30
0
10
-11.945862084932418
20
18.957682430965662
30
0
10
-11.934305827812846
20
18.962225769258541
30
0
10
-11.930078081786633
20
18.963887906074529
30
0
0
SPLINE
5
118
100
AcDbEntity
8
0
100
AcDbSpline
70
0
71
3
72
9
73
5
74
0
42
0.000000001
43
0.0000000001
44
0.0000000001
40
0
40
0
40
0
40
0
40
0.055156598090265414
40
0.11002563926666027
40
0.11002563926666027
40
0.11002563926666027
40
0.11002563926666027
10
-11.930078081786633
20
18.963887906074529
30
0
10
-12.074652493671527
20
18.842841590003395
30
0
10
-12.363047584014206
20
18.601380028418237
30
0
10
-12.73748620093917
20
18.566343417753433
30
0
10
-12.924216203391552
20
18.548870897293096
30
0
0
SPLINE
5
119
100
AcDbEntity
8
0
100
AcDbSpline
70
0
71
3
72
9
73
5
74
0
42
0.000000001
43
0.0000000001
44
0.0000000001
40
0
40
0
40
0
40
0
40
0.055336934622279663
40
0.10948226580068404
40
0.10948226580068404
40
0.10948226580068404
40
0.10948226580068404
10
-12.924216203391552
20
18.548870897293096
30
0
10
-13.112898719774467
20
18.565162523731217
30
0
10
-13.48620073860836
20
18.597394959232002
30
0
10
-13.772558497230914
20
18.838655439053731
30
0
10
-13.914179019629955
20
18.957972741127023
30
0
0
SPLINE
5
120
100
AcDbEntity
8
0
100
AcDbSpline
70
0
71
3
72
9
73
5
74
0
42
0.000000001
43
0.0000000001
44
0.0000000001
40
0
40
0
40
0
40
0
40
0.054732684039319815
40
0.11007647743967529
40
0.11007647743967529
40
0.11007647743967529
40
0.11007647743967529
10
-13.914179019629955
20
18.957972741127023
30
0
10
-14.031300723555873
20
19.103578853740753
30
0
10
-14.266851835769479
20
19.396416821611833
30
0
10
-14.299385515757443
20
19.770941296894357
30
0
10
-14.315742664039135
20
19.959243154525765
30
0
0
SPLINE
5
121
100
AcDbEntity
8
0
100
AcDbSpline
70
0
71
3
72
9
73
5
74
0
42
0.000000001
43
0.0000000001
44
0.0000000001
40
0
40
0
40
0
40
0
40
0.055857688159096738
40
0.11022505075815885
40
0.11022505075815885
40
0.11022505075815885
40
0.11022505075815885
10
-14.315742664039135
20
19.959243154525765
30
0
10
-14.300411384919363
20
20.149249659149767
30
0
10
-14.270157876855247
20
20.524193150489907
30
0
10
-14.039880405470004
20
20.821283280995537
30
0
10
-13.926298432052135
20
20.967819905281075
30
0
0
SPLINE
5
122
100
AcDbEntity
8
0
100
AcDbSpline
70
0
71
3
72
9
73
5
74
0
42
0.000000001
43
0.0000000001
44
0.0000000001
40
0
40
0
40
0
40
0
40
0.053698447167848912
40
0.10969255318230184
40
0.10969255318230184
40
0.10969255318230184
40
0.10969255318230184
10
-13.926298432052135
20
20.967819905281075
30
0
10
-13.786532771159283
20
21.087143759134289
30
0
10
-13.501026336631917
20
21.33089267320992
30
0
10
-13.126367674558459
20
21.361404811622947
30
0
10
-12.935117892920969
20
21.376980161666879
30
0
0
SPLINE
5
123
100
AcDbEntity
8
0
100
AcDbSpline
70
0
71
3
72
9
73
5
74
0
42
0.000000001
43
0.0000000001
44
0.0000000001
40
0
40
0
40
0
40
0
40
0.052891640637949267
40
0.10254132910142655
40
0.10254132910142655
40
0.10254132910142655
40
0.10254132910142655
10
-12.935117892920969
20
21.376980161666879
30
0
10
-12.754843476640655
20
21.364119448099576
30
0
10
-12.405344424892508
20
21.339186308448816
30
0
10
-12.128923233434929
20
21.124877321353441
30
0
10
-11.995082311332224
20
21.021110630035405
30
0
0
SPLINE
5
124
100
AcDbEntity
8
0
100
AcDbSpline
70
0
71
3
72
9
73
5
74
0
42
0.000000001
43
0.0000000001
44
0.0000000001
40
0
40
0
40
0
40
0
40
0.047555802170151637
40
0.095998678576487653
40
0.095998678576487653
40
0.095998678576487653
40
0.095998678576487653
10
-11.995082311332224
20
21.021110630035405
30
0
10
-11.888977865800115
20
20.899625285682212
30
0
10
-11.674789773131025
20
20.654388490336206
30
0
10
-11.605590808703532
20
20.336095671978995
30
0
10
-11.570671610534191
20
20.175478672981267
30
0
0
SPLINE
5
125
100
AcDbEntity
8
0
100
AcDbSpline
70
0
71
3
72
9
73
5
74
0
42
0.000000001
43
0.0000000001
44
0.0000000001
40
0
40
0
40
0
40
0
40
0.0043214469666441923
40
0.0096063857708387594
40
0.0096063857708387594
40
0.0096063857708387594
40
0.0096063857708387594
10
-11.570671610534191
20
20.175478672981267
30
0
10
-11.56210851206084
20
20.187164235851853
30
0
10
-11.543073122302822
20
20.213140726076233
30
0
10
-11.532708898292459
20
20.243684434060366
30
0
10
-11.527007035911083
20
20.260488009452825
30
0
0
SPLINE
5
126
100
AcDbEntity
8
0
100
AcDbSpline
70
0
71
3
72
9
73
5
74
0
42
0.000000001
43
0.0000000001
44
0.0000000001
40
0
40
0
40
0
40
0
40
0.014933769040183918
40
0.036574592160556404
40
0.036574592160556404
40
0.036574592160556404
40
0.036574592160556404
10
-11.527007035911083
20
20.260488009452825
30
0
10
-11.513754102638526
20
20.308673504217651
30
0
10
-11.481296078942655
20
20.426685562281225
30
0
10
-11.481233639107003
20
20.549347037581491
30
0
10
-11.481196694076061
20
20.621924614906316
30
0
0
SPLINE
5
127
100
AcDbEntity
8
0
100
AcDbSpline
70
0
71
3
72
9
73
5
74
0
42
0.000000001
43
0.0000000001
44
0.0000000001
40
0
40
0
40
0
40
0
40
0.071033563139658543
40
0.17266329794202018
40
0.17266329794202018
40
0.17266329794202018
40
0.17266329794202018
10
-11.481196694076061
20
20.621924614906316
30
0
10
-11.524870062494262
20
20.856996217302491
30
0
10
-11.631028158611411
20
21.428391432863314
30
0
10
-11.962729408711345
20
21.909250253774204
30
0
10
-12.15796899050474
20
22.192284083366403
30
0
0
LINE
5
128
100
AcDbEntity
8
0
100
AcDbLine
10
-12.15796899050474
20
22.192284083366403
30
0
11
-12.15796899050474
21
22.414608216285714
31
0
0
LINE
5
129
100
AcDbEntity
8
0
100
AcDbLine
10
-12.15796899050474
20
22.414608216285714
30
0
11
-10.3320000693202
21
22.414608216285714
31
0
0
LINE
5
130
100
AcDbEntity
8
0
100
AcDbLine
10
-10.3320000693202
20
22.414608216285714
30
0
11
-10.3320000693202
21
22.167465901374822
31
0
0
SPLINE
5
131
100
AcDbEntity
8
0
100
AcDbSpline
70
0
71
3
72
9
73
5
74
0
42
0.000000001
43
0.0000000001
44
0.0000000001
40
0
40
0
40
0
40
0
40
0.097243226627186291
40
0.16726555804951915
40
0.16726555804951915
40
0.16726555804951915
40
0.16726555804951915
10
-10.3320000693202
20
22.167465901374822
30
0
10
-10.5234181617927
20
21.899344220930974
30
0
10
-10.85267146990163
20
21.438155055781696
30
0
10
-10.95248902733055
20
20.883350017850294
30
0
10
-10.994275622069836
20
20.651092147827153
30
0
0
SPLINE
5
132
100
AcDbEntity
8
0
100
AcDbSpline
70
0
71
3
72
9
73
5
74
0
42
0.000000001
43
0.0000000001
44
0.0000000001
40
0
40
0
40
0
40
0
40
0.025025052544835062
40
0.038869500039530963
40
0.038869500039530963
40
0.038869500039530963
40
0.038869500039530963
10
-10.994275622069836
20
20.651092147827153
30
0
10
-10.99530948361747
20
20.567382464398229
30
0
10
-10.996915301682975
20
20.437362615787716
30
0
10
-10.97337602465598
20
20.309720630559337
30
0
10
-10.964991860091686
20
20.264257407188421
30
0
0
SPLINE
5
133
100
AcDbEntity
8
0
100
AcDbSpline
70
0
71
3
72
9
73
5
74
0
42
0.000000001
43
0.0000000001
44
0.0000000001
40
0
40
0
40
0
40
0
40
0.0049582855061529214
40
0.0071102663734627248
40
0.0071102663734627248
40
0.0071102663734627248
40
0.0071102663734627248
10
-10.964991860091686
20
20.264257407188421
30
0
10
-10.959622364010563
20
20.248623786828901
30
0
10
-10.951922414626715
20
20.226204907359403
30
0
10
-10.943392729467046
20
20.204090725048346
30
0
10
-10.940811149775982
20
20.197397685050969
30
0
0
SPLINE
5
134
100
AcDbEntity
8
0
100
AcDbSpline
70
0
71
3
72
9
73
5
74
0
42
0.000000001
43
0.0000000001
44
0.0000000001
40
0
40
0
40
0
40
0
40
0.045927442085656647
40
0.095781024587280814
40
0.095781024587280814
40
0.095781024587280814
40
0.095781024587280814
10
-10.940811149775982
20
20.197397685050969
30
0
10
-10.907052136486982
20
20.349932165218512
30
0
10
-10.836648196379766
20
20.668040645287739
30
0
10
-10.608751347178771
20
20.901811569240586
30
0
10
-10.490132085978983
20
21.023488259315496
30
0
0
SPLINE
5
135
100
AcDbEntity
8
0
100
AcDbSpline
70
0
71
3
72
9
73
5
74
0
42
0.000000001
43
0.0000000001
44
0.0000000001
40
0
40
0
40
0
40
0
40
0.050276125460347529
40
0.099351786878265541
40
0.099351786878265541
40
0.099351786878265541
40
0.099351786878265541
10
-10.490132085978983
20
21.023488259315496
30
0
10
-10.353431996735832
20
21.126602423015601
30
0
10
-10.083295863364992
20
21.330368650469698
30
0
10
-9.7465754945229381
20
21.361607354313811
30
0
10
-9.5802496001124364
20
21.377037978172307
30
0
0
SPLINE
5
136
100
AcDbEntity
8
0
100
AcDbSpline
70
0
71
3
72
9
73
5
74
0
42
0.000000001
43
0.0000000001
44
0.0000000001
40
0
40
0
40
0
40
0
40
0.057109858107060582
40
0.1105971187047797
40
0.1105971187047797
40
0.1105971187047797
40
0.1105971187047797
10
-9.5802496001124364
20
21.377037978172307
30
0
10
-9.3852073954614372
20
21.362771911396806
30
0
10
-9.0074949203263994
20
21.335144704239998
30
0
10
-8.7149902139872815
20
21.095766049626839
30
0
10
-8.5735283419489843
20
20.979997134208681
30
0
0
SPLINE
5
137
100
AcDbEntity
8
0
100
AcDbSpline
70
0
71
3
72
9
73
5
74
0
42
0.000000001
43
0.0000000001
44
0.0000000001
40
0
40
0
40
0
40
0
40
0.054045478560282453
40
0.11141661288676422
40
0.11141661288676422
40
0.11141661288676422
40
0.11141661288676422
10
-8.5735283419489843
20
20.979997134208681
30
0
10
-8.4602897941253161
20
20.834501667817907
30
0
10
-8.2268446330716252
20
20.534557759696924
30
0
10
-8.199345748764113
20
20.154831363726498
30
0
10
-8.1851859018206579
20
19.95930097103119
30
0
0
SPLINE
5
138
100
AcDbEntity
8
0
100
AcDbSpline
70
0
71
3
72
9
73
5
74
0
42
0.000000001
43
0.0000000001
44
0.0000000001
40
0
40
0
40
0
40
0
40
0.056232753863599869
40
0.11008594195993023
40
0.11008594195993023
40
0.11008594195993023
40
0.11008594195993023
10
-8.1851859018206579
20
19.95930097103119
30
0
10
-8.2000600537762516
20
19.767696057577599
30
0
10
-8.2291789376363305
20
19.392594254225529
30
0
10
-8.4628643978375617
20
19.098329447650244
30
0
10
-8.5771815106272697
20
18.954377388954164
30
0
0
SPLINE
5
139
100
AcDbEntity
8
0
100
AcDbSpline
70
0
71
3
72
9
73
5
74
0
42
0.000000001
43
0.0000000001
44
0.0000000001
40
0
40
0
40
0
40
0
40
0.054273645153269386
40
0.11054916241145657
40
0.11054916241145657
40
0.11054916241145657
40
0.11054916241145657
10
-8.5771815106272697
20
18.954377388954164
30
0
10
-8.7201203612557059
20
18.836115325245885
30
0
10
-9.0112703322666015
20
18.595229126224602
30
0
10
-9.3883139544356951
20
18.564509070958167
30
0
10
-9.5802496001124382
20
18.548870897293096
30
0
0
SPLINE
5
140
100
AcDbEntity
8
0
100
AcDbSpline
70
0
71
3
72
9
73
5
74
0
42
0.000000001
43
0.0000000001
44
0.0000000001
40
0
40
0
40
0
40
0
40
0.055510100051220146
40
0.10497783603618778
40
0.10497783603618778
40
0.10497783603618778
40
0.10497783603618778
10
-9.5802496001124382
20
18.548870897293096
30
0
10
-9.7705990045749118
20
18.560569184280972
30
0
10
-10.130577973317706
20
18.582692380819697
30
0
10
-10.405003495394016
20
18.814597835060695
30
0
10
-10.534318499267101
20
18.923876500129705
30
0
0
SPLINE
5
141
100
AcDbEntity
8
0
100
AcDbSpline
70
0
71
3
72
9
73
5
74
0
42
0.000000001
43
0.0000000001
44
0.0000000001
40
0
40
0
40
0
40
0
40
0.19224810128368547
40
0.36747465314989131
40
0.36747465314989131
40
0.36747465314989131
40
0.36747465314989131
10
-0.14384558796882274
20
0.10461568832397461
30
0
10
-0.15497793029752849
20
-0.5371670185536237
30
0
10
-0.17625696300927807
20
-1.7639093168270192
30
0
10
-0.3801046517798401
20
-2.9735689542759136
30
0
10
-0.47730734944343212
20
-3.5503828525543213
30
0
0
SPLINE
5
142
100
AcDbEntity
8
0
100
AcDbSpline
70
0
71
3
72
9
73
5
74
0
42
0.000000001
43
0.0000000001
44
0.0000000001
40
0
40
0
40
0
40
0
40
0.15795815373424563
40
0.30036117515663563
40
0.30036117515663563
40
0.30036117515663563
40
0.30036117515663563
10
-0.47730734944343212
20
-3.5503828525543213
30
0
10
-0.59837456988661497
20
-4.0658684612291873
30
0
10
-0.8285867605560604
20
-5.0460765703870747
30
0
10
-1.3177152523311175
20
-5.9254092692239002
30
0
10
-1.5496139824390376
20
-6.3423061370849609
30
0
0
SPLINE
5
143
100
AcDbEntity
8
0
100
AcDbSpline
70
0
71
3
72
9
73
5
74
0
42
0.000000001
43
0.0000000001
44
0.0000000001
40
0
40
0
40
0
40
0
40
0.13252332277934264
40
0.26330285326580638
40
0.26330285326580638
40
0.26330285326580638
40
0.26330285326580638
10
-1.5496139824390376
20
-6.3423061370849609
30
0
10
-1.8130996418007506
20
-6.7028669525099405
30
0
10
-2.3366039159885954
20
-7.4192441869935388
30
0
10
-3.0951581342288259
20
-7.8792240489136356
30
0
10
-3.4719233810901606
20
-8.1076908111572266
30
0
0
SPLINE
5
144
100
AcDbEntity
8
0
100
AcDbSpline
70
0
71
3
72
9
73
5
74
0
42
0.000000001
43
0.0000000001
44
0.0000000001
40
0
40
0
40
0
40
0
40
0.13911852400269939
40
0.29695458686738396
40
0.29695458686738396
40
0.29695458686738396
40
0.29695458686738396
10
-3.4719233810901606
20
-8.1076908111572266
30
0
10
-3.903835353031182
20
-8.2867624378184974
30
0
10
-4.8257703872782098
20
-8.6689986734030295
30
0
10
-5.8245282769415585
20
-8.703805898765264
30
0
10
-6.3553839027881587
20
-8.7223064899444598
30
0
0
SPLINE
5
145
100
AcDbEntity
8
0
100
AcDbSpline
70
0
71
3
72
9
73
5
74
0
42
0.000000001
43
0.0000000001
44
0.0000000001
40
0
40
0
40
0
40
0
40
0.15974216455032819
40
0.29652451373084043
40
0.29652451373084043
40
0.29652451373084043
40
0.29652451373084043
10
-6.3553839027881587
20
-8.7223064899444598
30
0
10
-6.8927686217749251
20
-8.7061596218378572
30
0
10
-7.8902995049484304
20
-8.676186682463559
30
0
10
-8.8131497242893087
20
-8.300572114818932
30
0
10
-9.2388468086719477
20
-8.1273066997528076
30
0
0
SPLINE
5
146
100
AcDbEntity
8
0
100
AcDbSpline
70
0
71
3
72
9
73
5
74
0
42
0.000000001
43
0.0000000001
44
0.0000000001
40
0
40
0
40
0
40
0
40
0.12558539252549372
40
0.2517981347337398
40
0.2517981347337398
40
0.2517981347337398
40
0.2517981347337398
10
-9.2388468086719477
20
-8.1273066997528076
30
0
10
-9.6006447577940701
20
-7.9067164600225652
30
0
10
-10.326047982702953
20
-7.4644340433532186
30
0
10
-10.808282633367936
20
-6.7648789032502936
30
0
10
-11.05000069737434
20
-6.4142298698425293
30
0
0
SPLINE
5
147
100
AcDbEntity
8
0
100
AcDbSpline
70
0
71
3
72
9
73
5
74
0
42
0.000000001
43
0.0000000001
44
0.0000000001
40
0
40
0
40
0
40
0
40
0.13649925182116007
40
0.28992927348399949
40
0.28992927348399949
40
0.28992927348399949
40
0.28992927348399949
10
-11.05000069737434
20
-6.4142298698425293
30
0
10
-11.257573093165902
20
-6.0067153121487582
30
0
10
-11.698464256335273
20
-5.1411398744085668
30
0
10
-11.881563887369042
20
-4.1863997317760138
30
0
10
-11.978459864854809
20
-3.6811530590057373
30
0
0
SPLINE
5
148
100
AcDbEntity
8
0
100
AcDbSpline
70
0
71
3
72
9
73
5
74
0
42
0.000000001
43
0.0000000001
44
0.0000000001
40
0
40
0
40
0
40
0
40
0.17323918379949535
40
0.3667246896691938
40
0.3667246896691938
40
0.3667246896691938
40
0.3667246896691938
10
-11.978459864854809
20
-3.6811530590057373
30
0
10
-12.054678954879098
20
-3.1082019624918145
30
0
10
-12.216024797794027
20
-1.8953394422673142
30
0
10
-12.231719621842828
20
-0.67173240862535621
30
0
10
-12.240000277757641
20
-0.026152133941650391
30
0
0
SPLINE
5
149
100
AcDbEntity
8
0
100
AcDbSpline
70
0
71
3
72
9
73
5
74
0
42
0.000000001
43
0.0000000001
44
0.0000000001
40
0
40
0
40
0
40
0
40
0.19305752237051557
40
0.36805307567907419
40
0.36805307567907419
40
0.36805307567907419
40
0.36805307567907419
10
-12.240000277757641
20
-0.026152133941650391
30
0
10
-12.229259971415992
20
0.61830963907969716
30
0
10
-12.208784194382059
20
1.8469389864659647
30
0
10
-12.00836691742202
20
3.0590644467891792
30
0
10
-11.913075953721997
20
3.6353850364685059
30
0
0
SPLINE
5
150
100
AcDbEntity
8
0
100
AcDbSpline
70
0
71
3
72
9
73
5
74
0
42
0.000000001
43
0.0000000001
44
0.0000000001
40
0
40
0
40
0
40
0
40
0.15735208345503623
40
0.29953586719637632
40
0.29953586719637632
40
0.29953586719637632
40
0.29953586719637632
10
-11.913075953721997
20
3.6353850364685059
30
0
10
-11.793747344279817
20
4.1492398630774696
30
0
10
-11.566593068811862
20
5.1274153515853182
30
0
10
-11.078835622738087
20
6.0044558295589168
30
0
10
-10.847306758165356
20
6.4207696914672852
30
0
0
SPLINE
5
151
100
AcDbEntity
8
0
100
AcDbSpline
70
0
71
3
72
9
73
5
74
0
42
0.000000001
43
0.0000000001
44
0.0000000001
40
0
40
0
40
0
40
0
40
0.13252332277934264
40
0.26330265777779827
40
0.26330265777779827
40
0.26330265777779827
40
0.26330265777779827
10
-10.847306758165356
20
6.4207696914672852
30
0
10
-10.583821047125284
20
6.7813304278403086
30
0
10
-10.060317058934158
20
7.497706973389282
30
0
10
-9.3017640877203114
20
7.9576874632775363
30
0
10
-8.9249997437000239
20
8.1861543655395508
30
0
0
SPLINE
5
152
100
AcDbEntity
8
0
100
AcDbSpline
70
0
71
3
72
9
73
5
74
0
42
0.000000001
43
0.0000000001
44
0.0000000001
40
0
40
0
40
0
40
0
40
0.13942693344624649
40
0.29823924325341788
40
0.29823924325341788
40
0.29823924325341788
40
0.29823924325341788
10
-8.9249997437000239
20
8.1861543655395508
30
0
10
-8.4919771922502552
20
8.3652135763328328
30
0
10
-7.5657263247603401
20
8.7482276913576751
30
0
10
-6.5626172512211545
20
8.7825138610735607
30
0
10
-6.0284619629383052
20
8.8007712364196777
30
0
0
SPLINE
5
153
100
AcDbEntity
8
0
100
AcDbSpline
70
0
71
3
72
9
73
5
74
0
42
0.000000001
43
0.0000000001
44
0.0000000001
40
0
40
0
40
0
40
0
40
0.15957956927599978
40
0.29589815507873579
40
0.29589815507873579
40
0.29589815507873579
40
0.29589815507873579
10
-6.0284619629383052
20
8.8007712364196777
30
0
10
-5.4915673473458693
20
8.7847719335111663
30
0
10
-4.4960381142098615
20
8.7551054528040559
30
0
10
-3.5755859297643555
20
8.3790281200835448
30
0
10
-3.151538878679272
20
8.2057714462280273
30
0
0
SPLINE
5
154
100
AcDbEntity
8
0
100
AcDbSpline
70
0
71
3
72
9
73
5
74
0
42
0.000000001
43
0.0000000001
44
0.0000000001
40
0
40
0
40
0
40
0
40
0.12518554425800787
40
0.2512966120698551
40
0.2512966120698551
40
0.2512966120698551
40
0.2512966120698551
10
-3.151538878679272
20
8.2057714462280273
30
0
10
-2.7915177473017261
20
7.984961085880089
30
0
10
-2.0688137711759325
20
7.5417078668742299
30
0
10
-1.5881429776554423
20
6.8432224106885897
30
0
10
-1.3469224274158442
20
6.4926934242248535
30
0
0
SPLINE
5
155
100
AcDbEntity
8
0
100
AcDbSpline
70
0
71
3
72
9
73
5
74
0
42
0.000000001
43
0.0000000001
44
0.0000000001
40
0
40
0
40
0
40
0
40
0.13656711046696915
40
0.29011392121610335
40
0.29011392121610335
40
0.29011392121610335
40
0.29011392121610335
10
-1.3469224274158442
20
6.4926934242248535
30
0
10
-1.1390158744151879
20
6.0851500009884107
30
0
10
-0.69735327255371349
20
5.2193923513121643
30
0
10
-0.51070802207701327
20
4.2648305008817777
30
0
10
-0.41192343831061962
20
3.759615421295166
30
0
0
SPLINE
5
156
100
AcDbEntity
8
0
100
AcDbSpline
70
0
71
3
72
9
73
5
74
0
42
0.000000001
43
0.0000000001
44
0.0000000001
40
0
40
0
40
0
40
0
40
0.1732951617972858
40
0.36678637475889686
40
0.36678637475889686
40
0.36678637475889686
40
0.36678637475889686
10
-0.41192343831061962
20
3.759615421295166
30
0
10
-0.33379826132461599
20
3.18670554705343
30
0
10
-0.16844309418143411
20
1.9741181115050965
30
0
10
-0.15234030811686505
20
0.75024617475427213
30
0
10
-0.14384558796882274
20
0.10461568832397461
30
0
0
SPLINE
5
157
100
AcDbEntity
8
0
100
AcDbSpline
70
0
71
3
72
9
73
5
74
0
42
0.000000001
43
0.0000000001
44
0.0000000001
40
0
40
0
40
0
40
0
40
0.0027170435343843234
40
0.0080101501822425532
40
0.0080101501822425532
40
0.0080101501822425532
40
0.0080101501822425532
10
11.965681500732902
20
-18.776123499870309
30
0
10
11.958684325364107
20
-18.781880765185516
30
0
10
11.938055864742756
20
-18.798853831398922
30
0
10
11.919320534244406
20
-18.817918429494998
30
0
10
11.906940229237083
20
-18.830516314506539
30
0
0
SPLINE
5
158
100
AcDbEntity
8
0
100
AcDbSpline
70
0
71
3
72
9
73
5
74
0
42
0.000000001
43
0.0000000001
44
0.0000000001
40
0
40
0
40
0
40
0
40
0.0039036188278850944
40
0.007406961082501164
40
0.007406961082501164
40
0.007406961082501164
40
0.007406961082501164
10
11.906940229237083
20
-18.830516314506539
30
0
10
11.897931980286012
20
-18.839966504717776
30
0
10
11.880839187074381
20
-18.857897863849683
30
0
10
11.867931055751926
20
-18.879030240618405
30
0
10
11.861825771629814
20
-18.889025425910958
30
0
0
SPLINE
5
159
100
AcDbEntity
8
0
100
AcDbSpline
70
0
71
3
72
9
73
5
74
0
42
0.000000001
43
0.0000000001
44
0.0000000001
40
0
40
0
40
0
40
0
40
0.001687609760389375
40
0.0041657813251141599
40
0.0041657813251141599
40
0.0041657813251141599
40
0.0041657813251141599
10
11.861825771629814
20
-18.889025425910958
30
0
10
11.857100592488488
20
-18.894729573115796
30
0
10
11.845436721203333
20
-18.908809978704429
30
0
10
11.84462341134247
20
-18.888406198930191
30
0
10
11.844139583408836
20
-18.876268243789681
30
0
0
SPLINE
5
160
100
AcDbEntity
8
0
100
AcDbSpline
70
0
71
3
72
9
73
5
74
0
42
0.000000001
43
0.0000000001
44
0.0000000001
40
0
40
0
40
0
40
0
40
0.018454128098846029
40
0.038856706290807341
40
0.038856706290807341
40
0.038856706290807341
40
0.038856706290807341
10
11.844139583408836
20
-18.876268243789681
30
0
10
11.900159284908128
20
-18.902195726857414
30
0
10
12.018113439989166
20
-18.956788205517292
30
0
10
12.120463564209278
20
-19.036994247478287
30
0
10
12.17420477420092
20
-19.079108214378365
30
0
0
SPLINE
5
161
100
AcDbEntity
8
0
100
AcDbSpline
70
0
71
3
72
9
73
5
74
0
42
0.000000001
43
0.0000000001
44
0.0000000001
40
0
40
0
40
0
40
0
40
0.021125299310547553
40
0.041781236137236312
40
0.041781236137236312
40
0.041781236137236312
40
0.041781236137236312
10
12.17420477420092
20
-19.079108214378365
30
0
10
12.227114335879614
20
-19.125958691655448
30
0
10
12.331757913133522
20
-19.218618721010813
30
0
10
12.412973229818384
20
-19.332357511690802
30
0
10
12.45312470942736
20
-19.388588047027596
30
0
0
SPLINE
5
162
100
AcDbEntity
8
0
100
AcDbSpline
70
0
71
3
72
9
73
5
74
0
42
0.000000001
43
0.0000000001
44
0.0000000001
40
0
40
0
40
0
40
0
40
0.020568031553562214
40
0.041412076684620519
40
0.041412076684620519
40
0.041412076684620519
40
0.041412076684620519
10
12.45312470942736
20
-19.388588047027596
30
0
10
12.488590969669168
20
-19.447535172873351
30
0
10
12.559999431146183
20
-19.566220468036644
30
0
10
12.603468277787279
20
-19.697742053310353
30
0
10
12.625347562134269
20
-19.763941144943246
30
0
0
SPLINE
5
163
100
AcDbEntity
8
0
100
AcDbSpline
70
0
71
3
72
9
73
5
74
0
42
0.000000001
43
0.0000000001
44
0.0000000001
40
0
40
0
40
0
40
0
40
0.021386920171216753
40
0.043590595204935939
40
0.043590595204935939
40
0.043590595204935939
40
0.043590595204935939
10
12.625347562134269
20
-19.763941144943246
30
0
10
12.642648042920811
20
-19.83332767412033
30
0
10
12.677909700456331
20
-19.974750566328268
30
0
10
12.68238798690496
20
-20.120455051010353
30
0
10
12.684669084846975
20
-20.194672322273263
30
0
0
SPLINE
5
164
100
AcDbEntity
8
0
100
AcDbSpline
70
0
71
3
72
9
73
5
74
0
42
0.000000001
43
0.0000000001
44
0.0000000001
40
0
40
0
40
0
40
0
40
0.054923371960906305
40
0.1051933348834232
40
0.1051933348834232
40
0.1051933348834232
40
0.1051933348834232
10
12.684669084846975
20
-20.194672322273263
30
0
10
12.670656779201597
20
-20.383848924367591
30
0
10
12.643819367228922
20
-20.746174050187996
30
0
10
12.390798338969038
20
-21.005149402867502
30
0
10
12.269884236156942
20
-21.12890896797181
30
0
0
SPLINE
5
165
100
AcDbEntity
8
0
100
AcDbSpline
70
0
71
3
72
9
73
5
74
0
42
0.000000001
43
0.0000000001
44
0.0000000001
40
0
40
0
40
0
40
0
40
0.059184874392898296
40
0.1177261223734762
40
0.1177261223734762
40
0.1177261223734762
40
0.1177261223734762
10
12.269884236156942
20
-21.12890896797181
30
0
10
12.115895228542071
20
-21.260355749960894
30
0
10
11.80959182010206
20
-21.521819850388265
30
0
10
11.408855161940586
20
-21.560402283295947
30
0
10
11.209582276642324
20
-21.579588031768804
30
0
0
SPLINE
5
166
100
AcDbEntity
8
0
100
AcDbSpline
70
0
71
3
72
9
73
5
74
0
42
0.000000001
43
0.0000000001
44
0.0000000001
40
0
40
0
40
0
40
0
40
0.05423131606382546
40
0.10754770233207531
40
0.10754770233207531
40
0.10754770233207531
40
0.10754770233207531
10
11.209582276642324
20
-21.579588031768804
30
0
10
11.024863692382985
20
-21.563614859579523
30
0
10
10.658542888149773
20
-21.531937996604448
30
0
10
10.374825962931169
20
-21.298348392925615
30
0
10
10.234174318611624
20
-21.182547187805181
30
0
0
SPLINE
5
167
100
AcDbEntity
8
0
100
AcDbSpline
70
0
71
3
72
9
73
5
74
0
42
0.000000001
43
0.0000000001
44
0.0000000001
40
0
40
0
40
0
40
0
40
0.053518787727602157
40
0.10807043860964527
40
0.10807043860964527
40
0.10807043860964527
40
0.10807043860964527
10
10.234174318611624
20
-21.182547187805181
30
0
10
10.118120170722293
20
-21.041226156304489
30
0
10
9.8837721371176386
20
-20.755856727968769
30
0
10
9.8522005209133017
20
-20.387738877411863
30
0
10
9.8362638428807294
20
-20.201920843124395
30
0
0
SPLINE
5
168
100
AcDbEntity
8
0
100
AcDbSpline
70
0
71
3
72
9
73
5
74
0
42
0.000000001
43
0.0000000001
44
0.0000000001
40
0
40
0
40
0
40
0
40
0.04470296268211308
40
0.086986509437483789
40
0.086986509437483789
40
0.086986509437483789
40
0.086986509437483789
10
9.8362638428807294
20
-20.201920843124395
30
0
10
9.8443499880205891
20
-20.051305730673093
30
0
10
9.8600846395586377
20
-19.758227104233082
30
0
10
9.9917855351330669
20
-19.496189090681327
30
0
10
10.05580443888903
20
-19.368814206123357
30
0
0
SPLINE
5
169
100
AcDbEntity
8
0
100
AcDbSpline
70
0
71
3
72
9
73
5
74
0
42
0.000000001
43
0.0000000001
44
0.0000000001
40
0
40
0
40
0
40
0
40
0.042523824175829082
40
0.082155152244258109
40
0.082155152244258109
40
0.082155152244258109
40
0.082155152244258109
10
10.05580443888903
20
-19.368814206123357
30
0
10
10.138871455349436
20
-19.250561807114423
30
0
10
10.29935521982846
20
-19.022100608430645
30
0
10
10.551503987936613
20
-18.903226704137804
30
0
10
10.673139579594139
20
-18.845882391929635
30
0
0
SPLINE
5
170
100
AcDbEntity
8
0
100
AcDbSpline
70
0
71
3
72
9
73
5
74
0
42
0.000000001
43
0.0000000001
44
0.0000000001
40
0
40
0
40
0
40
0
40
0.0015732062046312013
40
0.002776812370905774
40
0.002776812370905774
40
0.002776812370905774
40
0.002776812370905774
10
10.673139579594139
20
-18.845882391929635
30
0
10
10.671829134368682
20
-18.8530054780794
30
0
10
10.66951611239945
20
-18.86557819339254
30
0
10
10.661182253833132
20
-18.857056495231706
30
0
10
10.657569952309135
20
-18.853362774848947
30
0
0
SPLINE
5
171
100
AcDbEntity
8
0
100
AcDbSpline
70
0
71
3
72
9
73
5
74
0
42
0.000000001
43
0.0000000001
44
0.0000000001
40
0
40
0
40
0
40
0
40
0.0028340736275613769
40
0.0070588310504960759
40
0.0070588310504960759
40
0.0070588310504960759
40
0.0070588310504960759
10
10.657569952309135
20
-18.853362774848947
30
0
10
10.652250666213801
20
-18.845554496976387
30
0
10
10.639001913079415
20
-18.826106408626917
30
0
10
10.624879940780794
20
-18.807280813792055
30
0
10
10.616427846252922
20
-18.796013569831853
30
0
0
SPLINE
5
172
100
AcDbEntity
8
0
100
AcDbSpline
70
0
71
3
72
9
73
5
74
0
42
0.000000001
43
0.0000000001
44
0.0000000001
40
0
40
0
40
0
40
0
40
0.0029210559405567407
40
0.0059124687948366918
40
0.0059124687948366918
40
0.0059124687948366918
40
0.0059124687948366918
10
10.616427846252922
20
-18.796013569831853
30
0
10
10.609734674064583
20
-18.788925871306486
30
0
10
10.596187117116916
20
-18.774579759074737
30
0
10
10.580863863168801
20
-18.762147054097021
30
0
10
10.573111064732078
20
-18.755856728553777
30
0
0
SPLINE
5
173
100
AcDbEntity
8
0
100
AcDbSpline
70
0
71
3
72
9
73
5
74
0
42
0.000000001
43
0.0000000001
44
0.0000000001
40
0
40
0
40
0
40
0
40
0.001914139070943693
40
0.0030183870890892546
40
0.0030183870890892546
40
0.0030183870890892546
40
0.0030183870890892546
10
10.573111064732078
20
-18.755856728553777
30
0
10
10.56574825592106
20
-18.750602659262903
30
0
10
10.554137915067583
20
-18.742317569034348
30
0
10
10.565694172187158
20
-18.737774230741469
30
0
10
10.569921918213371
20
-18.736112093925481
30
0
0
SPLINE
5
174
100
AcDbEntity
8
0
100
AcDbSpline
70
0
71
3
72
9
73
5
74
0
42
0.000000001
43
0.0000000001
44
0.0000000001
40
0
40
0
40
0
40
0
40
0.055156598090265414
40
0.11002563926666027
40
0.11002563926666027
40
0.11002563926666027
40
0.11002563926666027
10
10.569921918213371
20
-18.736112093925481
30
0
10
10.425347506328478
20
-18.857158409996615
30
0
10
10.136952415985796
20
-19.098619971581776
30
0
10
9.7625137990608337
20
-19.13365658224658
30
0
10
9.5757837966084516
20
-19.151129102706914
30
0
0
SPLINE
5
175
100
AcDbEntity
8
0
100
AcDbSpline
70
0
71
3
72
9
73
5
74
0
42
0.000000001
43
0.0000000001
44
0.0000000001
40
0
40
0
40
0
40
0
40
0.055336934622279663
40
0.10948226580068404
40
0.10948226580068404
40
0.10948226580068404
40
0.10948226580068404
10
9.5757837966084516
20
-19.151129102706914
30
0
10
9.3871012802255365
20
-19.134837476268796
30
0
10
9.0137992613916431
20
-19.102605040768012
30
0
10
8.727441502769091
20
-18.861344560946279
30
0
10
8.5858209803700483
20
-18.742027258872991
30
0
0
SPLINE
5
176
100
AcDbEntity
8
0
100
AcDbSpline
70
0
71
3
72
9
73
5
74
0
42
0.000000001
43
0.0000000001
44
0.0000000001
40
0
40
0
40
0
40
0
40
0.054732684039319815
40
0.11007647743967529
40
0.11007647743967529
40
0.11007647743967529
40
0.11007647743967529
10
8.5858209803700483
20
-18.742027258872991
30
0
10
8.4686992764441289
20
-18.59642114625926
30
0
10
8.2331481642305242
20
-18.30358317838818
30
0
10
8.2006144842425606
20
-17.929058703105657
30
0
10
8.1842573359608686
20
-17.740756845474248
30
0
0
SPLINE
5
177
100
AcDbEntity
8
0
100
AcDbSpline
70
0
71
3
72
9
73
5
74
0
42
0.000000001
43
0.0000000001
44
0.0000000001
40
0
40
0
40
0
40
0
40
0.055857688159096738
40
0.11022505075815885
40
0.11022505075815885
40
0.11022505075815885
40
0.11022505075815885
10
8.1842573359608686
20
-17.740756845474248
30
0
10
8.1995886150806392
20
-17.550750340850247
30
0
10
8.2298421231447563
20
-17.175806849510106
30
0
10
8.4601195945299992
20
-16.878716719004476
30
0
10
8.5737015679478681
20
-16.732180094718938
30
0
0
SPLINE
5
178
100
AcDbEntity
8
0
100
AcDbSpline
70
0
71
3
72
9
73
5
74
0
42
0.000000001
43
0.0000000001
44
0.0000000001
40
0
40
0
40
0
40
0
40
0.053698447167848912
40
0.10969255318230184
40
0.10969255318230184
40
0.10969255318230184
40
0.10969255318230184
10
8.5737015679478681
20
-16.732180094718938
30
0
10
8.7134672288407202
20
-16.612856240865725
30
0
10
8.998973663368087
20
-16.369107326790093
30
0
10
9.3736323254415428
20
-16.338595188377067
30
0
10
9.5648821070790344
20
-16.323019838333135
30
0
0
SPLINE
5
179
100
AcDbEntity
8
0
100
AcDbSpline
70
0
71
3
72
9
73
5
74
0
42
0.000000001
43
0.0000000001
44
0.0000000001
40
0
40
0
40
0
40
0
40
0.052891640637949267
40
0.10254132910142655
40
0.10254132910142655
40
0.10254132910142655
40
0.10254132910142655
10
9.5648821070790344
20
-16.323019838333135
30
0
10
9.7451565233593467
20
-16.335880551900438
30
0
10
10.094655575107495
20
-16.360813691551193
30
0
10
10.371076766565075
20
-16.575122678646569
30
0
10
10.504917688667778
20
-16.678889369964605
30
0
0
SPLINE
5
180
100
AcDbEntity
8
0
100
AcDbSpline
70
0
71
3
72
9
73
5
74
0
42
0.000000001
43
0.0000000001
44
0.0000000001
40
0
40
0
40
0
40
0
40
0.047555802170151637
40
0.095998678576487653
40
0.095998678576487653
40
0.095998678576487653
40
0.095998678576487653
10
10.504917688667778
20
-16.678889369964605
30
0
10
10.611022134199889
20
-16.800374714317805
30
0
10
10.825210226868979
20
-17.045611509663804
30
0
10
10.89440919129647
20
-17.363904328021018
30
0
10
10.929328389465812
20
-17.524521327018746
30
0
0
SPLINE
5
181
100
AcDbEntity
8
0
100
AcDbSpline
70
0
71
3
72
9
73
5
74
0
42
0.000000001
43
0.0000000001
44
0.0000000001
40
0
40
0
40
0
40
0
40
0.0043214469666441923
40
0.0096063857708387594
40
0.0096063857708387594
40
0.0096063857708387594
40
0.0096063857708387594
10
10.929328389465812
20
-17.524521327018746
30
0
10
10.937891487939165
20
-17.512835764148161
30
0
10
10.956926877697182
20
-17.48685927392378
30
0
10
10.967291101707545
20
-17.456315565939647
30
0
10
10.97299296408892
20
-17.439511990547189
30
0
0
SPLINE
5
182
100
AcDbEntity
8
0
100
AcDbSpline
70
0
71
3
72
9
73
5
74
0
42
0.000000001
43
0.0000000001
44
0.0000000001
40
0
40
0
40
0
40
0
40
0.014933769040183918
40
0.036574592160556404
40
0.036574592160556404
40
0.036574592160556404
40
0.036574592160556404
10
10.97299296408892
20
-17.439511990547189
30
0
10
10.98624589736148
20
-17.391326495782359
30
0
10
11.018703921057346
20
-17.273314437718788
30
0
10
11.018766360893002
20
-17.150652962418526
30
0
10
11.018803305923942
20
-17.078075385093697
30
0
0
SPLINE
5
183
100
AcDbEntity
8
0
100
AcDbSpline
70
0
71
3
72
9
73
5
74
0
42
0.000000001
43
0.0000000001
44
0.0000000001
40
0
40
0
40
0
40
0
40
0.071033563139658543
40
0.17266329794202018
40
0.17266329794202018
40
0.17266329794202018
40
0.17266329794202018
10
11.018803305923942
20
-17.078075385093697
30
0
10
10.975129937505741
20
-16.843003782697522
30
0
10
10.868971841388591
20
-16.271608567136695
30
0
10
10.537270591288657
20
-15.790749746225814
30
0
10
10.342031009495262
20
-15.507715916633613
30
0
0
LINE
5
184
100
AcDbEntity
8
0
100
AcDbLine
10
10.342031009495262
20
-15.507715916633613
30
0
11
10.342031009495262
21
-15.285391783714301
31
0
0
LINE
5
185
100
AcDbEntity
8
0
100
AcDbLine
10
10.342031009495262
20
-15.285391783714301
30
0
11
12.167999930679802
21
-15.285391783714301
31
0
0
LINE
5
186
100
AcDbEntity
8
0
100
AcDbLine
10
12.167999930679802
20
-15.285391783714301
30
0
11
12.167999930679802
21
-15.53253409862519
31
0
0
SPLINE
5
187
100
AcDbEntity
8
0
100
AcDbSpline
70
0
71
3
72
9
73
5
74
0
42
0.000000001
43
0.0000000001
44
0.0000000001
40
0
40
0
40
0
40
0
40
0.097243226627186291
40
0.16726555804951915
40
0.16726555804951915
40
0.16726555804951915
40
0.16726555804951915
10
12.167999930679802
20
-15.53253409862519
30
0
10
11.976581838207302
20
-15.800655779069038
30
0
10
11.647328530098376
20
-16.261844944218318
30
0
10
11.547510972669453
20
-16.81664998214972
30
0
10
11.505724377930168
20
-17.04890785217286
30
0
0
SPLINE
5
188
100
AcDbEntity
8
0
100
AcDbSpline
70
0
71
3
72
9
73
5
74
0
42
0.000000001
43
0.0000000001
44
0.0000000001
40
0
40
0
40
0
40
0
40
0.025025052544835062
40
0.038869500039530963
40
0.038869500039530963
40
0.038869500039530963
40
0.038869500039530963
10
11.505724377930168
20
-17.04890785217286
30
0
10
11.504690516382535
20
-17.132617535601781
30
0
10
11.50308469831703
20
-17.262637384212297
30
0
10
11.526623975344023
20
-17.390279369440673
30
0
10
11.535008139908317
20
-17.435742592811593
30
0
0
SPLINE
5
189
100
AcDbEntity
8
0
100
AcDbSpline
70
0
71
3
72
9
73
5
74
0
42
0.000000001
43
0.0000000001
44
0.0000000001
40
0
40
0
40
0
40
0
40
0.0049582855061529214
40
0.0071102663734627248
40
0.0071102663734627248
40
0.0071102663734627248
40
0.0071102663734627248
10
11.535008139908317
20
-17.435742592811593
30
0
10
11.540377635989438
20
-17.451376213171113
30
0
10
11.548077585373287
20
-17.473795092640607
30
0
10
11.556607270532959
20
-17.495909274951664
30
0
10
11.559188850224022
20
-17.502602314949044
30
0
0
SPLINE
5
190
100
AcDbEntity
8
0
100
AcDbSpline
70
0
71
3
72
9
73
5
74
0
42
0.000000001
43
0.0000000001
44
0.0000000001
40
0
40
0
40
0
40
0
40
0.045927442085656647
40
0.095781024587280814
40
0.095781024587280814
40
0.095781024587280814
40
0.095781024587280814
10
11.559188850224022
20
-17.502602314949044
30
0
10
11.592947863513023
20
-17.350067834781498
30
0
10
11.663351803620237
20
-17.031959354712274
30
0
10
11.891248652821233
20
-16.798188430759428
30
0
10
12.009867914021019
20
-16.676511740684518
30
0
0
SPLINE
5
191
100
AcDbEntity
8
0
100
AcDbSpline
70
0
71
3
72
9
73
5
74
0
42
0.000000001
43
0.0000000001
44
0.0000000001
40
0
40
0
40
0
40
0
40
0.050276125460347529
40
0.099351786878265541
40
0.099351786878265541
40
0.099351786878265541
40
0.099351786878265541
10
12.009867914021019
20
-16.676511740684518
30
0
10
12.146568003264173
20
-16.573397576984409
30
0
10
12.416704136635012
20
-16.369631349530316
30
0
10
12.753424505477064
20
-16.338392645686202
30
0
10
12.919750399887565
20
-16.322962021827706
30
0
0
SPLINE
5
192
100
AcDbEntity
8
0
100
AcDbSpline
70
0
71
3
72
9
73
5
74
0
42
0.000000001
43
0.0000000001
44
0.0000000001
40
0
40
0
40
0
40
0
40
0.057109858107060582
40
0.1105971187047797
40
0.1105971187047797
40
0.1105971187047797
40
0.1105971187047797
10
12.919750399887565
20
-16.322962021827706
30
0
10
13.114792604538565
20
-16.337228088603201
30
0
10
13.492505079673602
20
-16.364855295760012
30
0
10
13.785009786012722
20
-16.604233950373171
30
0
10
13.926471658051017
20
-16.720002865791329
30
0
0
SPLINE
5
193
100
AcDbEntity
8
0
100
AcDbSpline
70
0
71
3
72
9
73
5
74
0
42
0.000000001
43
0.0000000001
44
0.0000000001
40
0
40
0
40
0
40
0
40
0.054045478560282453
40
0.11141661288676422
40
0.11141661288676422
40
0.11141661288676422
40
0.11141661288676422
10
13.926471658051017
20
-16.720002865791329
30
0
10
14.039710205874687
20
-16.865498332182103
30
0
10
14.273155366928378
20
-17.165442240303083
30
0
10
14.300654251235891
20
-17.545168636273512
30
0
10
14.314814098179344
20
-17.74069902896882
30
0
0
SPLINE
5
194
100
AcDbEntity
8
0
100
AcDbSpline
70
0
71
3
72
9
73
5
74
0
42
0.000000001
43
0.0000000001
44
0.0000000001
40
0
40
0
40
0
40
0
40
0.056232753863599869
40
0.11008594195993023
40
0.11008594195993023
40
0.11008594195993023
40
0.11008594195993023
10
14.314814098179344
20
-17.74069902896882
30
0
10
14.299939946223752
20
-17.932303942422408
30
0
10
14.270821062363673
20
-18.307405745774478
30
0
10
14.03713560216244
20
-18.601670552349766
30
0
10
13.922818489372734
20
-18.745622611045846
30
0
0
SPLINE
5
195
100
AcDbEntity
8
0
100
AcDbSpline
70
0
71
3
72
9
73
5
74
0
42
0.000000001
43
0.0000000001
44
0.0000000001
40
0
40
0
40
0
40
0
40
0.054273645153269386
40
0.11054916241145657
40
0.11054916241145657
40
0.11054916241145657
40
0.11054916241145657
10
13.922818489372734
20
-18.745622611045846
30
0
10
13.779879638744298
20
-18.863884674754125
30
0
10
13.488729667733404
20
-19.104770873775404
30
0
10
13.11168604556431
20
-19.135490929041843
30
0
10
12.919750399887565
20
-19.151129102706918
30
0
0
SPLINE
5
196
100
AcDbEntity
8
0
100
AcDbSpline
70
0
71
3
72
9
73
5
74
0
42
0.000000001
43
0.0000000001
44
0.0000000001
40
0
40
0
40
0
40
0
40
0.055510100051220146
40
0.10497783603618778
40
0.10497783603618778
40
0.10497783603618778
40
0.10497783603618778
10
12.919750399887565
20
-19.151129102706918
30
0
10
12.729400995425092
20
-19.139430815719042
30
0
10
12.369422026682297
20
-19.117307619180313
30
0
10
12.094996504605987
20
-18.885402164939315
30
0
10
11.965681500732902
20
-18.776123499870309
30
0
0
SPLINE
5
197
100
AcDbEntity
8
0
100
AcDbSpline
70
0
71
3
72
9
73
5
74
0
42
0.000000001
43
0.0000000001
44
0.0000000001
40
0
40
0
40
0
40
0
40
0.02860756771059874
40
0.051676586623306424
40
0.051676586623306424
40
0.051676586623306424
40
0.051676586623306424
10
12.240001052618027
20
-4.720768928527832
30
0
10
12.239731758398722
20
-4.8161433998299463
30
0
10
12.239245306485305
20
-4.988427432424225
30
0
10
12.230727040774605
20
-5.1604947370659353
30
0
10
12.226924389600754
20
-5.2373075485229492
30
0
0
SPLINE
5
198
100
AcDbEntity
8
0
100
AcDbSpline
70
0
71
3
72
9
73
5
74
0
42
0.000000001
43
0.0000000001
44
0.0000000001
40
0
40
0
40
0
40
0
40
0.018936779508671401
40
0.035352289619296776
40
0.035352289619296776
40
0.035352289619296776
40
0.035352289619296776
10
12.226924389600754
20
-5.2373075485229492
30
0
10
12.221630194391317
20
-5.3004200728199287
30
0
10
12.211746680552055
20
-5.4182422313622558
30
0
10
12.177459993668782
20
-5.5313328088231035
30
0
10
12.161539286375046
20
-5.5838453769683838
30
0
0
SPLINE
5
199
100
AcDbEntity
8
0
100
AcDbSpline
70
0
71
3
72
9
73
5
74
0
42
0.000000001
43
0.0000000001
44
0.0000000001
40
0
40
0
40
0
40
0
40
0.014477165552981688
40
0.027752825391836572
40
0.027752825391836572
40
0.027752825391836572
40
0.027752825391836572
10
12.161539286375046
20
-5.5838453769683838
30
0
10
12.143182697736863
20
-5.6288856731578418
30
0
10
12.107992991754646
20
-5.7152282290378675
30
0
10
12.046911940662701
20
-5.7855780161250987
30
0
10
12.017693608999252
20
-5.8192300796508789
30
0
0
SPLINE
5
200
100
AcDbEntity
8
0
100
AcDbSpline
70
0
71
3
72
9
73
5
74
0
42
0.000000001
43
0.0000000001
44
0.0000000001
40
0
40
0
40
0
40
0
40
0.014362256295989827
40
0.031692313870352366
40
0.031692313870352366
40
0.031692313870352366
40
0.031692313870352366
10
12.017693608999252
20
-5.8192300796508789
30
0
10
11.982383093246977
20
-5.8516493922194019
30
0
10
11.90446553453738
20
-5.9231871094281967
30
0
10
11.817039002826943
20
-5.9827913056063498
30
0
10
11.769232243299484
20
-6.0153841972351074
30
0
0
LINE
5
201
100
AcDbEntity
8
0
100
AcDbLine
10
11.769232243299484
20
-6.0153841972351074
30
0
11
8.1338472068309784
21
-8.3692300319671631
31
0
0
SPLINE
5
202
100
AcDbEntity
8
0
100
AcDbSpline
70
0
71
3
72
9
73
5
74
0
42
0.000000001
43
0.0000000001
44
0.0000000001
40
0
40
0
40
0
40
0
40
0.0087508378845768536
40
0.018495801878294596
40
0.018495801878294596
40
0.018495801878294596
40
0.018495801878294596
10
8.1338472068309802
20
-8.3692300319671631
30
0
10
8.1098941564163258
20
-8.3861070086669507
30
0
10
8.0592669044098582
20
-8.421778246262841
30
0
10
8.0010552654930756
20
-8.4430318516898417
30
0
10
7.9703850448131579
20
-8.4542298316955566
30
0
0
SPLINE
5
203
100
AcDbEntity
8
0
100
AcDbSpline
70
0
71
3
72
9
73
5
74
0
42
0.000000001
43
0.0000000001
44
0.0000000001
40
0
40
0
40
0
40
0
40
0.011656218798070448
40
0.026060361866397888
40
0.026060361866397888
40
0.026060361866397888
40
0.026060361866397888
10
7.9703850448131579
20
-8.4542298316955566
30
0
10
7.932960241190723
20
-8.4648504597334391
30
0
10
7.8492878306024005
20
-8.4885955021619086
30
0
10
7.7630507840658414
20
-8.5001508032815529
30
0
10
7.7153856456279772
20
-8.5065376758575439
30
0
0
SPLINE
5
204
100
AcDbEntity
8
0
100
AcDbSpline
70
0
71
3
72
9
73
5
74
0
42
0.000000001
43
0.0000000001
44
0.0000000001
40
0
40
0
40
0
40
0
40
0.01821774148039839
40
0.041286641291592915
40
0.041286641291592915
40
0.041286641291592915
40
0.041286641291592915
10
7.7153856456279772
20
-8.5065376758575439
30
0
10
7.6549467467417447
20
-8.5126193536248458
30
0
10
7.5179748207178942
20
-8.526402184427436
30
0
10
7.3803567655701263
20
-8.5304374759326134
30
0
10
7.3034627139568347
20
-8.5326921939849854
30
0
0
SPLINE
5
205
100
AcDbEntity
8
0
100
AcDbSpline
70
0
71
3
72
9
73
5
74
0
42
0.000000001
43
0.0000000001
44
0.0000000001
40
0
40
0
40
0
40
0
40
0.029263791482678343
40
0.066042962255424942
40
0.066042962255424942
40
0.066042962255424942
40
0.066042962255424942
10
7.3034627139568347
20
-8.5326921939849854
30
0
10
7.2059332633307189
20
-8.5345930980950548
30
0
10
6.985827340613719
20
-8.5388830869185153
30
0
10
6.7656783031382339
20
-8.5391064391712064
30
0
10
6.6430778205394763
20
-8.5392308235168457
30
0
0
SPLINE
5
206
100
AcDbEntity
8
0
100
AcDbSpline
70
0
71
3
72
9
73
5
74
0
42
0.000000001
43
0.0000000001
44
0.0000000001
40
0
40
0
40
0
40
0
40
0.044954590949559198
40
0.080456286873903077
40
0.080456286873903077
40
0.080456286873903077
40
0.080456286873903077
10
6.6430778205394763
20
-8.5392308235168457
30
0
10
6.4932046329646447
20
-8.5388741555031373
30
0
10
6.2249730704139612
20
-8.5382358183850897
30
0
10
5.957063117144143
20
-8.525315904588231
30
0
10
5.8388466536998767
20
-8.5196149349212646
30
0
0
SPLINE
5
207
100
AcDbEntity
8
0
100
AcDbSpline
70
0
71
3
72
9
73
5
74
0
42
0.000000001
43
0.0000000001
44
0.0000000001
40
0
40
0
40
0
40
0
40
0.027097618315632125
40
0.046941250832604753
40
0.046941250832604753
40
0.046941250832604753
40
0.046941250832604753
10
5.8388466536998767
20
-8.5196149349212646
30
0
10
5.7485501385852356
20
-8.513534591362875
30
0
10
5.5921293300870527
20
-8.5030016017547752
30
0
10
5.4392451292313844
20
-8.4687212709811739
30
0
10
5.3746158778667468
20
-8.4542298316955566
30
0
0
SPLINE
5
208
100
AcDbEntity
8
0
100
AcDbSpline
70
0
71
3
72
9
73
5
74
0
42
0.000000001
43
0.0000000001
44
0.0000000001
40
0
40
0
40
0
40
0
40
0.014145775495559981
40
0.024679807800315978
40
0.024679807800315978
40
0.024679807800315978
40
0.024679807800315978
10
5.3746158778667468
20
-8.4542298316955566
30
0
10
5.3285991750781143
20
-8.4401127813421439
30
0
10
5.2483148965114097
20
-8.4154830896339039
30
0
10
5.1901935217935291
20
-8.3555714223117317
30
0
10
5.1653856933116931
20
-8.3299994468688965
30
0
0
SPLINE
5
209
100
AcDbEntity
8
0
100
AcDbSpline
70
0
71
3
72
9
73
5
74
0
42
0.000000001
43
0.0000000001
44
0.0000000001
40
0
40
0
40
0
40
0
40
0.0096594930540395973
40
0.020526903043424367
40
0.020526903043424367
40
0.020526903043424367
40
0.020526903043424367
10
5.1653856933116931
20
-8.3299994468688965
30
0
10
5.1501436376823779
20
-8.3011741020570717
30
0
10
5.1177535115820705
20
-8.2399188110355404
30
0
10
5.1146963696942187
20
-8.1705635722984109
30
0
10
5.1130778491497058
20
-8.133845329284668
30
0
0
LINE
5
210
100
AcDbEntity
8
0
100
AcDbLine
10
5.1130778491497058
20
-8.133845329284668
30
0
11
5.1130778491497058
21
5.8453869819641113
31
0
0
LINE
5
211
100
AcDbEntity
8
0
100
AcDbLine
10
5.1130778491497058
20
5.8453869819641113
30
0
11
2.3538465201854724
21
5.8453869819641113
31
0
0
SPLINE
5
212
100
AcDbEntity
8
0
100
AcDbSpline
70
0
71
3
72
9
73
5
74
0
42
0.000000001
43
0.0000000001
44
0.0000000001
40
0
40
0
40
0
40
0
40
0.011421187413731671
40
0.023046443636814771
40
0.023046443636814771
40
0.023046443636814771
40
0.023046443636814771
10
2.3538465201854719
20
5.8453869819641113
30
0
10
2.3152914380677148
20
5.8484890400488831
30
0
10
2.2374923883934872
20
5.8547485824431167
30
0
10
2.1714109767107548
20
5.8963323442482629
30
0
10
2.1380777060985579
20
5.9173083305358887
30
0
0
SPLINE
5
213
100
AcDbEntity
8
0
100
AcDbSpline
70
0
71
3
72
9
73
5
74
0
42
0.000000001
43
0.0000000001
44
0.0000000001
40
0
40
0
40
0
40
0
40
0.013061651776601849
40
0.028734262246796385
40
0.028734262246796385
40
0.028734262246796385
40
0.028734262246796385
10
2.1380777060985579
20
5.9173083305358887
30
0
10
2.1055838625138823
20
5.9468589800874172
30
0
10
2.0341008189495957
20
6.0118673058565886
30
0
10
1.9913796405908268
20
6.0987601773721778
30
0
10
1.9680781066417707
20
6.1461544036865234
30
0
0
SPLINE
5
214
100
AcDbEntity
8
0
100
AcDbSpline
70
0
71
3
72
9
73
5
74
0
42
0.000000001
43
0.0000000001
44
0.0000000001
40
0
40
0
40
0
40
0
40
0.019178141261420326
40
0.042614645355689477
40
0.042614645355689477
40
0.042614645355689477
40
0.042614645355689477
10
1.9680781066417707
20
6.1461544036865234
30
0
10
1.9453226057436024
20
6.2060987435004122
30
0
10
1.8947589151623245
20
6.3392976154572267
30
0
10
1.8745671527931451
20
6.4804491359411776
30
0
10
1.8634624183177961
20
6.558077335357666
30
0
0
SPLINE
5
215
100
AcDbEntity
8
0
100
AcDbSpline
70
0
71
3
72
9
73
5
74
0
42
0.000000001
43
0.0000000001
44
0.0000000001
40
0
40
0
40
0
40
0
40
0.028710825200809299
40
0.063537635291379582
40
0.063537635291379582
40
0.063537635291379582
40
0.063537635291379582
10
1.8634624183177961
20
6.558077335357666
30
0
10
1.8539502905695859
20
6.6533574242329641
30
0
10
1.8328997599950148
20
6.8642141827951786
30
0
10
1.8315243594509778
20
7.0761440378964346
30
0
10
1.8307704627513899
20
7.1923089027404785
30
0
0
SPLINE
5
216
100
AcDbEntity
8
0
100
AcDbSpline
70
0
71
3
72
9
73
5
74
0
42
0.000000001
43
0.0000000001
44
0.0000000001
40
0
40
0
40
0
40
0
40
0.033850813203241958
40
0.062282298618160974
40
0.062282298618160974
40
0.062282298618160974
40
0.062282298618160974
10
1.8307704627513899
20
7.1923089027404785
30
0
10
1.8317546558948461
20
7.3052493502614091
30
0
10
1.8335654783081945
20
7.5130491049182258
30
0
10
1.8585814232022635
20
7.7193075172117798
30
0
10
1.8700010478496565
20
7.8134632110595703
30
0
0
SPLINE
5
217
100
AcDbEntity
8
0
100
AcDbSpline
70
0
71
3
72
9
73
5
74
0
42
0.000000001
43
0.0000000001
44
0.0000000001
40
0
40
0
40
0
40
0
40
0.023370413779708433
40
0.042140156596079267
40
0.042140156596079267
40
0.042140156596079267
40
0.042140156596079267
10
1.8700010478496565
20
7.8134632110595703
30
0
10
1.8828469169369599
20
7.8905803422451326
30
0
10
1.9060098330947284
20
8.029633420852651
30
0
10
1.957998829009342
20
8.1605409054085207
30
0
10
1.9811553657054914
20
8.218848705291748
30
0
0
SPLINE
5
218
100
AcDbEntity
8
0
100
AcDbSpline
70
0
71
3
72
9
73
5
74
0
42
0.000000001
43
0.0000000001
44
0.0000000001
40
0
40
0
40
0
40
0
40
0.01502575091657701
40
0.027277924072680891
40
0.027277924072680891
40
0.027277924072680891
40
0.027277924072680891
10
1.9811553657054914
20
8.218848705291748
30
0
10
2.0040627958661861
20
8.2639936446553541
30
0
10
2.0456492126844172
20
8.3459502959444123
30
0
10
2.1139419277209681
20
8.4071355182973129
30
0
10
2.1446163356304182
20
8.4346175193786621
30
0
0
SPLINE
5
219
100
AcDbEntity
8
0
100
AcDbSpline
70
0
71
3
72
9
73
5
74
0
42
0.000000001
43
0.0000000001
44
0.0000000001
40
0
40
0
40
0
40
0
40
0.010965321868742644
40
0.02220018206215885
40
0.02220018206215885
40
0.02220018206215885
40
0.02220018206215885
10
2.1446163356304182
20
8.4346175193786621
30
0
10
2.1764517734094269
20
8.4536870332383796
30
0
10
2.2409051951313352
20
8.4922948082394356
30
0
10
2.3158959177204563
20
8.497411847309273
30
0
10
2.3538465201854719
20
8.5000014305114746
30
0
0
LINE
5
220
100
AcDbEntity
8
0
100
AcDbLine
10
2.3538465201854719
20
8.5000014305114746
30
0
11
11.690770477056503
21
8.5000014305114746
31
0
0
SPLINE
5
221
100
AcDbEntity
8
0
100
AcDbSpline
70
0
71
3
72
9
73
5
74
0
42
0.000000001
43
0.0000000001
44
0.0000000001
40
0
40
0
40
0
40
0
40
0.010265611731921122
40
0.020939464932734946
40
0.020939464932734946
40
0.020939464932734946
40
0.020939464932734946
10
11.690770477056503
20
8.5000014305114746
30
0
10
11.725383194634333
20
8.4970707381764541
30
0
10
11.795985103694841
20
8.4910928061271562
30
0
10
11.85621958438821
20
8.4536857145513622
30
0
10
11.886923998594284
20
8.4346175193786621
30
0
0
SPLINE
5
222
100
AcDbEntity
8
0
100
AcDbSpline
70
0
71
3
72
9
73
5
74
0
42
0.000000001
43
0.0000000001
44
0.0000000001
40
0
40
0
40
0
40
0
40
0.012252173156103883
40
0.027277985023910281
40
0.027277985023910281
40
0.027277985023910281
40
0.027277985023910281
10
11.886923998594284
20
8.4346175193786621
30
0
10
11.917598348746608
20
8.4071354832014755
30
0
10
11.985891087790737
20
8.3459500459964708
30
0
10
12.027478268133923
20
8.263993608915019
30
0
10
12.050386160612106
20
8.218848705291748
30
0
0
SPLINE
5
223
100
AcDbEntity
8
0
100
AcDbSpline
70
0
71
3
72
9
73
5
74
0
42
0.000000001
43
0.0000000001
44
0.0000000001
40
0
40
0
40
0
40
0
40
0.018769702327707232
40
0.042140116107415665
40
0.042140116107415665
40
0.042140116107415665
40
0.042140116107415665
10
12.050386160612106
20
8.218848705291748
30
0
10
12.073542215264688
20
8.160540875332023
30
0
10
12.125530191131993
20
8.0296331666441212
30
0
10
12.148693298758811
20
7.8905802992201579
30
0
10
12.161539286375046
20
7.8134632110595703
30
0
0
SPLINE
5
224
100
AcDbEntity
8
0
100
AcDbSpline
70
0
71
3
72
9
73
5
74
0
42
0.000000001
43
0.0000000001
44
0.0000000001
40
0
40
0
40
0
40
0
40
0.028431485414919015
40
0.062282300345095132
40
0.062282300345095132
40
0.062282300345095132
40
0.062282300345095132
10
12.161539286375046
20
7.8134632110595703
30
0
10
12.172958872921189
20
7.7193075161057267
30
0
10
12.197974735043907
20
7.5130490956702234
30
0
10
12.19978602191677
20
7.3052493487090198
30
0
10
12.20077046751976
20
7.1923089027404785
30
0
0
SPLINE
5
225
100
AcDbEntity
8
0
100
AcDbSpline
70
0
71
3
72
9
73
5
74
0
42
0.000000001
43
0.0000000001
44
0.0000000001
40
0
40
0
40
0
40
0
40
0.034826810090570287
40
0.063537640381661459
40
0.063537640381661459
40
0.063537640381661459
40
0.063537640381661459
10
12.20077046751976
20
7.1923089027404785
30
0
10
12.20001663623159
20
7.076144032284839
30
0
10
12.198641354913216
20
6.8642141499672249
30
0
10
12.177590287266808
20
6.6533574203933332
30
0
10
12.168077915906906
20
6.558077335357666
30
0
0
SPLINE
5
226
100
AcDbEntity
8
0
100
AcDbSpline
70
0
71
3
72
9
73
5
74
0
42
0.000000001
43
0.0000000001
44
0.0000000001
40
0
40
0
40
0
40
0
40
0.023436493285448126
40
0.042614634546868452
40
0.042614634546868452
40
0.042614634546868452
40
0.042614634546868452
10
12.168077915906906
20
6.558077335357666
30
0
10
12.15697343090325
20
6.480449126734209
30
0
10
12.136782117958159
20
6.3392975602124935
30
0
10
12.086218360428497
20
6.2060987368400289
30
0
10
12.063462823629379
20
6.1461544036865234
30
0
0
SPLINE
5
227
100
AcDbEntity
8
0
100
AcDbSpline
70
0
71
3
72
9
73
5
74
0
42
0.000000001
43
0.0000000001
44
0.0000000001
40
0
40
0
40
0
40
0
40
0.01559146148211856
40
0.02831422384050377
40
0.02831422384050377
40
0.02831422384050377
40
0.02831422384050377
10
12.063462823629379
20
6.1461544036865234
30
0
10
12.040546482436545
20
6.0989581483085065
30
0
10
11.998930216066427
20
6.0132493556633015
30
0
10
11.930672360601404
20
5.9470530797530952
30
0
10
11.900001257658005
20
5.9173083305358887
30
0
0
SPLINE
5
228
100
AcDbEntity
8
0
100
AcDbSpline
70
0
71
3
72
9
73
5
74
0
42
0.000000001
43
0.0000000001
44
0.0000000001
40
0
40
0
40
0
40
0
40
0.011193128950970507
40
0.022453006954633779
40
0.022453006954633779
40
0.022453006954633779
40
0.022453006954633779
10
11.900001257658005
20
5.9173083305358887
30
0
10
11.868340639976322
20
5.8963319182159513
30
0
10
11.804830599833963
20
5.8542540029372203
30
0
10
11.728865794889602
20
5.8483485076400177
30
0
10
11.690770477056503
20
5.8453869819641113
30
0
0
LINE
5
229
100
AcDbEntity
8
0
100
AcDbLine
10
11.690770477056505
20
5.8453869819641113
30
0
11
8.5392315089702606
21
5.8453869819641113
31
0
0
LINE
5
230
100
AcDbEntity
8
0
100
AcDbLine
10
8.5392315089702606
20
5.8453869819641113
30
0
11
8.5392315089702624
21
-5.1653838157653809
31
0
0
LINE
5
231
100
AcDbEntity
8
0
100
AcDbLine
10
8.5392315089702624
20
-5.1653838157653809
30
0
11
11.259232252836229
21
-3.6615371704101562
31
0
0
SPLINE
5
232
100
AcDbEntity
8
0
100
AcDbSpline
70
0
71
3
72
9
73
5
74
0
42
0.000000001
43
0.0000000001
44
0.0000000001
40
0
40
0
40
0
40
0
40
0.029662755508015313
40
0.052228674720742399
40
0.052228674720742399
40
0.052228674720742399
40
0.052228674720742399
10
11.259232252836227
20
-3.6615371704101562
30
0
10
11.34901484460805
20
-3.6193911279546986
30
0
10
11.507099476360104
20
-3.545182515016565
30
0
10
11.676447747233464
20
-3.5031566395686142
30
0
10
11.749616354703903
20
-3.4849989414215088
30
0
0
SPLINE
5
233
100
AcDbEntity
8
0
100
AcDbSpline
70
0
71
3
72
9
73
5
74
0
42
0.000000001
43
0.0000000001
44
0.0000000001
40
0
40
0
40
0
40
0
40
0.017003223648543692
40
0.032087798510112571
40
0.032087798510112571
40
0.032087798510112571
40
0.032087798510112571
10
11.749616354703903
20
-3.4849989414215088
30
0
10
11.808279133321014
20
-3.4788923403666638
30
0
10
11.918985165260461
20
-3.46736820892666
30
0
10
12.008367326078409
20
-3.5327330749120112
30
0
10
12.050386160612106
20
-3.5634613037109375
30
0
0
SPLINE
5
234
100
AcDbEntity
8
0
100
AcDbSpline
70
0
71
3
72
9
73
5
74
0
42
0.000000001
43
0.0000000001
44
0.0000000001
40
0
40
0
40
0
40
0
40
0.017829904975255211
40
0.041894910487426648
40
0.041894910487426648
40
0.041894910487426648
40
0.041894910487426648
10
12.050386160612106
20
-3.5634613037109375
30
0
10
12.08504567893443
20
-3.6126324580607272
30
0
10
12.166485115637327
20
-3.7281698719116041
30
0
10
12.188261701104066
20
-3.86857760731665
30
0
10
12.20077046751976
20
-3.9492297172546387
30
0
0
SPLINE
5
235
100
AcDbEntity
8
0
100
AcDbSpline
70
0
71
3
72
9
73
5
74
0
42
0.000000001
43
0.0000000001
44
0.0000000001
40
0
40
0
40
0
40
0
40
0.033150139117421401
40
0.077295651295365447
40
0.077295651295365447
40
0.077295651295365447
40
0.077295651295365447
10
12.20077046751976
20
-3.9492297172546387
30
0
10
12.21215494304014
20
-4.0592063934232296
30
0
10
12.238699943255282
20
-4.3156372573070945
30
0
10
12.239528081694701
20
-4.57349806406945
30
0
10
12.240001052618027
20
-4.720768928527832
30
0
0
LWPOLYLINE
5
236
100
AcDbEntity
8
0
100
AcDbPolyline
90
8
70
1
43
0.0
10
17.699999999999999
20
21.500000000000007
10
17.699999999999999
20
-21.5
42
-0.41421356237309542
10
14
20
-25.200000000000003
10
-14.000000000000004
20
-25.200000000000003
42
-0.41421356237309542
10
-17.699999999999999
20
-21.500000000000004
10
-17.700000000000003
20
21.499999999999993
42
-0.41421356237309553
10
-13.999999999999995
20
25.200000000000003
10
14.000000000000012
20
25.199999999999996
42
-0.41421356237309492
0
ENDSEC
0
SECTION
2
OBJECTS
0
DICTIONARY
5
C
100
AcDbDictionary
3
ACAD_GROUP
350
D
3
ACAD_MLINESTYLE
350
17
0
DICTIONARY
5
D
100
AcDbDictionary
0
DICTIONARY
5
1A
330
C
100
AcDbDictionary
0
DICTIONARY
5
17
100
AcDbDictionary
0
ENDSEC
0
EOF
