<?xml version="1.0" encoding="utf-8"?><!-- Generator: Fusion 360, Shaper Origin Export Add-In, Version 1.7.0  -->
<svg xmlns="http://www.w3.org/2000/svg"
    width="3.8cm"
    height="5.3cm"
    version="1.1"
    x="0cm"
    y="0cm"
    viewBox="0 0 3.8 5.3"
    enable-background="new 0 0 3.8 5.3"
    xml:space="preserve">
    <path
        id="outerFrame"
        d="M-1.4,-2.65 L1.4,-2.65 A0.5,0.5 270 0,1 1.9,-2.15 L1.9,2.15 A0.5,0.5 0 0,1 1.4,2.65 L-1.4,2.65 A0.5,0.5 90 0,1 -1.9,2.15 L-1.9,-2.15 A0.5,0.5 180 0,1 -1.4,-2.65z"
        transform="matrix(-1,0,0,1,1.9,2.65)"
        stroke="rgb(0,0,0)"
        stroke-width="0.0000cm"
        stroke-linecap="round"
        stroke-linejoin="round"
        fill="rgb(0,0,0)" />
    <path
        id="innerFrame"
        d="M1.4,2.52 A0.37,0.37 90 0,0 1.77,2.15 L1.77,-2.15 A0.37,0.37 0 0,0 1.4,-2.52 L-1.4,-2.52 A0.37,0.37 270 0,0 -1.77,-2.15 L-1.77,2.15 A0.37,0.37 180 0,0 -1.4,2.52 L1.4,2.52z"
        transform="matrix(-1,0,0,1,1.9,2.65)"
        stroke="rgb(0,0,0)"
        stroke-width="0.0000cm"
        stroke-linecap="round"
        stroke-linejoin="round"
        fill="rgb(255,255,255)" />

    <path
        id="zeroOuterCircle"
        d="M-0.0143846,0.0104616 L-0.0143846,0.0104616 -0.0165258,-0.0814931 -0.0186187,-0.1273747 -0.0219386,-0.1731416 -0.0268169,-0.2187627 -0.0330404,-0.2642578 -0.0477307,-0.3550383 -0.0477307,-0.3550383 -0.0564599,-0.3917586 -0.0657659,-0.4282542 -0.0762259,-0.4643002 -0.0884168,-0.4996718 -0.1028143,-0.5341837 -0.1191301,-0.5679482 -0.1367257,-0.6012141 -0.1549614,-0.6342306 -0.1549614,-0.6342306 -0.174684,-0.6609953 -0.1949539,-0.6871629 -0.2163184,-0.7121367 -0.2275821,-0.7239892 -0.2393246,-0.7353194 -0.251595,-0.7460739 -0.2643506,-0.7562991 -0.2910402,-0.775464 -0.318839,-0.793419 -0.3471923,-0.8107691 -0.3471923,-0.8107691 -0.3817969,-0.8249581 -0.4165937,-0.838278 -0.4517748,-0.8498599 -0.4695695,-0.8547274 -0.4875314,-0.8588389 -0.5056618,-0.8621885 -0.5239403,-0.8648678 -0.5608574,-0.8685988 -0.5981132,-0.8707977 -0.6355384,-0.8722306 -0.6355384,-0.8722306 -0.6729187,-0.8709814 -0.7101366,-0.8689802 -0.7470296,-0.8654752 -0.7653034,-0.8629239 -0.7834352,-0.8597147 -0.8014049,-0.8557554 -0.8192103,-0.8510359 -0.854418,-0.839731 -0.8892462,-0.8266699 -0.9238847,-0.8127307 -0.9238847,-0.8127307 -0.9509921,-0.7960443 -0.9775281,-0.7787535 -1.0029215,-0.7602537 -1.0150111,-0.7503615 -1.0266008,-0.7399404 -1.0376443,-0.7289415 -1.0481904,-0.7174163 -1.0680745,-0.6930876 -1.0868215,-0.6675561 -1.1050001,-0.641423 -1.1050001,-0.641423 -1.1214265,-0.6089269 -1.1372113,-0.5762089 -1.1517128,-0.543047 -1.1642918,-0.5092202 -1.1746784,-0.474635 -1.1833524,-0.4394576 -1.1908846,-0.4038852 -1.197846,-0.3681153 -1.197846,-0.3681153 -1.2094652,-0.2771151 -1.2143715,-0.2315483 -1.218195,-0.1859017 -1.2207786,-0.1401636 -1.2223916,-0.0943539 -1.224,-0.0026152 -1.224,-0.0026152 -1.2219283,0.0894828 -1.2198875,0.1354397 -1.2166406,0.1812859 -1.2118588,0.2269913 -1.2057476,0.2725749 -1.1913076,0.3635385 -1.1913076,0.3635385 -1.1826924,0.4001825 -1.1734959,0.4366009 -1.1631367,0.472568 -1.1510334,0.5078583 -1.1441514,0.5251812 -1.1367082,0.5422864 -1.1204547,0.575966 -1.1029144,0.6091463 -1.0847307,0.642077 -1.0847307,0.642077 -1.0650081,0.6688416 -1.0447382,0.6950092 -1.0233738,0.7199829 -1.0121101,0.7318355 -1.0003675,0.7431657 -0.9880972,0.7539202 -0.9753416,0.7641454 -0.948652,0.7833103 -0.9208533,0.8012653 -0.8925,0.8186154 -0.8925,0.8186154 -0.8577335,0.8328328 -0.8227743,0.846176 -0.7874298,0.8577708 -0.7695528,0.8626395 -0.7515084,0.8667481 -0.7332956,0.870093 -0.7149348,0.8727664 -0.6778539,0.8764824 -0.6404346,0.8786635 -0.6028462,0.8800771 -0.6028462,0.8800771 -0.565541,0.8788392 -0.528399,0.8768485 -0.4915833,0.8733524 -0.4733487,0.8708045 -0.4552569,0.8675981 -0.4373279,0.8636406 -0.4195641,0.8589206 -0.3844424,0.8476081 -0.3497027,0.8345332 -0.3151539,0.8205771 -0.3151539,0.8205771 -0.2881474,0.8038551 -0.2617102,0.7865326 -0.2364118,0.7680093 -0.2243676,0.7581097 -0.2128215,0.7476848 -0.201819,0.7366866 -0.191311,0.7251669 -0.1714961,0.7008611 -0.1528116,0.6753632 -0.1346922,0.6492693 -0.1346922,0.6492693 -0.1182357,0.6167666 -0.102414,0.5840428 -0.087862,0.5508768 -0.0752121,0.5170485 -0.0647309,0.4824649 -0.0559436,0.4472915 -0.0411923,0.3759615 -0.0411923,0.3759615 -0.0292843,0.2849802 -0.0242558,0.2394195 -0.0203366,0.193775 -0.0176881,0.1480344 -0.0160343,0.1022185 -0.0143846,0.0104616z"
        transform="matrix(-1,0,0,1,1.9,2.65)"
        stroke="rgb(0,0,0)"
        stroke-width="0.0000cm"
        stroke-linecap="round"
        stroke-linejoin="round"
        fill="rgb(0,0,0)" />
    <path
        id="zeroInner"
        d="M-0.3609231,-0.0065384 L-0.3609231,-0.0065384 -0.3615954,0.0683131 -0.3637572,0.1430885 -0.3658479,0.1804245 -0.36862,0.2177256 -0.3753076,0.2922695 -0.3753076,0.2922695 -0.3821409,0.3404486 -0.3862616,0.3643636 -0.3912271,0.3880691 -0.397301,0.4114999 -0.4044217,0.434671 -0.4204231,0.480577 -0.4204231,0.480577 -0.4349936,0.5094132 -0.443118,0.5231358 -0.4522494,0.5360237 -0.4626871,0.5478288 -0.47431,0.5586517 -0.4995385,0.5786541 -0.4995385,0.5786541 -0.5272875,0.5910966 -0.5414008,0.5963585 -0.5558003,0.6004701 -0.5705293,0.6032574 -0.5855168,0.6050054 -0.615923,0.6067693 -0.615923,0.6067693 -0.6390459,0.6057221 -0.6505142,0.6046971 -0.6618705,0.6030704 -0.6730847,0.6006791 -0.684176,0.5976276 -0.7061539,0.5904231 -0.7061539,0.5904231 -0.7252178,0.5808298 -0.7344237,0.5755757 -0.7432384,0.5697726 -0.7515791,0.5633048 -0.7595356,0.5562977 -0.7748077,0.5413847 -0.7748077,0.5413847 -0.7896295,0.5223291 -0.7965869,0.5125286 -0.8030005,0.5024012 -0.8140804,0.4810957 -0.8238462,0.4590001 -0.8238462,0.4590001 -0.8337314,0.4307583 -0.8425501,0.4022166 -0.8496951,0.3732043 -0.8558846,0.3439233 -0.8558846,0.3439233 -0.8618257,0.3071785 -0.8668063,0.2703215 -0.8702769,0.2332881 -0.8728846,0.1961539 -0.8728846,0.1961539 -0.8764247,0.1053016 -0.8774615,0.0143847 -0.8774615,0.0143847 -0.8770803,-0.0387803 -0.8760456,-0.0919244 -0.8738567,-0.1450317 -0.8709231,-0.1981152 -0.8709231,-0.1981152 -0.867564,-0.2383834 -0.8633176,-0.2785373 -0.8574971,-0.3184883 -0.8506537,-0.3583076 -0.8506537,-0.3583076 -0.8441312,-0.3876694 -0.8365844,-0.4167243 -0.8272145,-0.4452328 -0.8166538,-0.4733845 -0.8166538,-0.4733845 -0.8068667,-0.4938166 -0.7957875,-0.5133947 -0.7893839,-0.5226128 -0.7824325,-0.5314689 -0.7676154,-0.5485768 -0.7676154,-0.5485768 -0.7528753,-0.5611891 -0.7452338,-0.5670488 -0.7372666,-0.5723729 -0.7288967,-0.5770348 -0.7201933,-0.5811483 -0.7022307,-0.5884614 -0.7022307,-0.5884614 -0.6822868,-0.5936002 -0.6621605,-0.5975074 -0.6417419,-0.5994411 -0.6211539,-0.6002307 -0.6211539,-0.6002307 -0.5871525,-0.5979479 -0.5705005,-0.595653 -0.5542669,-0.5919742 -0.538568,-0.586526 -0.5233366,-0.5795313 -0.4936538,-0.5629615 -0.4936538,-0.5629615 -0.4682193,-0.5390045 -0.4564861,-0.5263102 -0.4459318,-0.5127584 -0.4367101,-0.4982373 -0.4285255,-0.4829618 -0.4138845,-0.4511538 -0.4138845,-0.4511538 -0.3992456,-0.405719 -0.3927161,-0.3828218 -0.3871308,-0.3597095 -0.3825859,-0.3363605 -0.3788426,-0.3128289 -0.3726924,-0.2654614 -0.3726924,-0.2654614 -0.3673922,-0.2008421 -0.3634479,-0.1361587 -0.3615951,-0.0713765 -0.3609231,-0.0065384z"
        transform="matrix(-1,0,0,1,1.9,2.65)"
        stroke="rgb(0,0,0)"
        stroke-width="0.000cm"
        stroke-linecap="round"
        stroke-linejoin="round"
        fill="rgb(255,255,255)" />
    <path
        id="one"
        d="M1.2240001,-0.4720769 L1.2240001,-0.4720769 1.2237458,-0.4979146 1.2226924,-0.5237308 1.2226924,-0.5237308 1.2206404,-0.5412937 1.2161539,-0.5583845 1.2161539,-0.5583845 1.210255,-0.5709527 1.2017694,-0.581923 1.2017694,-0.581923 1.1898198,-0.592325 1.1769232,-0.6015384 0.8133847,-0.836923 0.8133847,-0.836923 0.8055903,-0.8418929 0.7970385,-0.845423 0.7970385,-0.845423 0.7844161,-0.8486448 0.7715386,-0.8506538 0.7715386,-0.8506538 0.7509745,-0.8524459 0.7303463,-0.8532692 0.7303463,-0.8532692 0.6643078,-0.8539231 0.6643078,-0.8539231 0.6240802,-0.8535526 0.5838847,-0.8519615 0.5838847,-0.8519615 0.5604981,-0.8498673 0.5374616,-0.845423 0.5374616,-0.845423 0.5315007,-0.8434796 0.5259023,-0.8409591 0.5209788,-0.8373642 0.5165386,-0.8329999 0.5165386,-0.8329999 0.5142067,-0.8283789 0.5124589,-0.8235966 0.5113078,-0.8133845 0.5113078,0.5845387 0.2353847,0.5845387 0.2353847,0.5845387 0.2295867,0.5851195 0.2240104,0.5863686 0.2188002,0.5887215 0.2138078,0.5917308 0.2138078,0.5917308 0.2085454,0.5966817 0.2038751,0.6020831 0.2000943,0.6081612 0.1968078,0.6146154 0.1968078,0.6146154 0.193121,0.624633 0.1900653,0.6348158 0.1863462,0.6558077 0.1863462,0.6558077 0.183732,0.6874659 0.183077,0.7192309 0.183077,0.7192309 0.1838824,0.7503654 0.1870001,0.7813463 0.1870001,0.7813463 0.1911243,0.8020207 0.1943175,0.8120382 0.1981155,0.8218849 0.1981155,0.8218849 0.2049595,0.833707 0.2094326,0.8388006 0.2144616,0.8434618 0.2144616,0.8434618 0.219329,0.8462514 0.2243963,0.8484054 0.2297929,0.849513 0.2353847,0.8500001 1.169077,0.8500001 1.169077,0.8500001 1.1743391,0.8494516 1.179403,0.8483021 1.184143,0.8461709 1.1886924,0.8434618 1.1886924,0.8434618 1.1937215,0.8388006 1.1981945,0.833707 1.2050386,0.8218849 1.2050386,0.8218849 1.2088366,0.8120382 1.2120298,0.8020207 1.2161539,0.7813463 1.2161539,0.7813463 1.2192717,0.7503654 1.220077,0.7192309 1.220077,0.7192309 1.2194221,0.6874659 1.2168078,0.6558077 1.2168078,0.6558077 1.2130888,0.6348158 1.2100331,0.624633 1.2063463,0.6146154 1.2063463,0.6146154 1.1994991,0.6022021 1.1950268,0.5967634 1.1900001,0.5917308 1.1900001,0.5917308 1.1851978,0.5886884 1.1801613,0.5863262 1.1747356,0.5850943 1.169077,0.5845387 0.8539232,0.5845387 0.8539232,-0.5165384 1.1259232,-0.3661537 1.1259232,-0.3661537 1.1498838,-0.3557307 1.1623012,-0.3517682 1.1749616,-0.3484999 1.1749616,-0.3484999 1.1832017,-0.3478623 1.1910645,-0.348585 1.1982641,-0.3516993 1.2050386,-0.3563461 1.2050386,-0.3563461 1.2109275,-0.3651027 1.2155122,-0.374403 1.2182815,-0.38446 1.220077,-0.394923 1.220077,-0.394923 1.223313,-0.4334291 1.2240001,-0.4720769z"
        transform="matrix(-1,0,0,1,1.9,2.65)"
        stroke="rgb(0,0,0)"
        stroke-width="0.0000cm"
        stroke-linecap="round"
        stroke-linejoin="round"
        fill="rgb(0,0,0)" />
    <path
        id="topRightCross"
        d="M1.1965682,-1.8776123 L1.1965682,-1.8776123 1.190694,-1.8830516 1.190694,-1.8830516 1.1861826,-1.8889025 1.1861826,-1.8889025 1.1853496,-1.8898256 1.184764,-1.8899628 1.184414,-1.8876268 1.184414,-1.8876268 1.2016965,-1.8964897 1.2174205,-1.9079108 1.2174205,-1.9079108 1.2325378,-1.9223309 1.2453125,-1.9388588 1.2453125,-1.9388588 1.2553206,-1.9569847 1.2625348,-1.9763941 1.2625348,-1.9763941 1.2670397,-1.9977166 1.2684669,-2.0194672 1.2684669,-2.0194672 1.2657772,-2.0463323 1.2631632,-2.059185 1.2590263,-2.0713417 1.2529573,-2.0826157 1.2452255,-2.0931298 1.2363843,-2.1031371 1.2269884,-2.1128909 1.2269884,-2.1128909 1.2037222,-2.131808 1.1915387,-2.1399677 1.1786949,-2.1465688 1.1650397,-2.1512547 1.1507168,-2.1543648 1.1209582,-2.1579588 1.1209582,-2.1579588 1.0937401,-2.1549574 1.080611,-2.1522836 1.0680578,-2.148202 1.0562143,-2.1423857 1.0449566,-2.1351375 1.0234174,-2.1182547 1.0234174,-2.1182547 1.0064811,-2.0965909 0.9992126,-2.0852695 0.9933835,-2.0733606 0.9892966,-2.0607409 0.9866219,-2.0475448 0.9836264,-2.0201921 0.9836264,-2.0201921 0.9851591,-1.9983056 0.9865865,-1.9875393 0.9888073,-1.9769853 0.9920222,-1.9666974 0.9960756,-1.956634 1.0055804,-1.9368814 1.0055804,-1.9368814 1.0178934,-1.9200776 1.0245688,-1.912296 1.0318667,-1.9052587 1.0399493,-1.8991595 1.0486997,-1.8938587 1.067314,-1.8845882 1.067314,-1.8845882 1.0668342,-1.8860087 1.065757,-1.8853363 1.065757,-1.8853363 1.0616428,-1.8796014 1.0616428,-1.8796014 1.0573111,-1.8755857 1.0573111,-1.8755857 1.0560262,-1.8744167 1.0569922,-1.8736112 1.0569922,-1.8736112 1.0350944,-1.8910774 1.0236426,-1.8986042 1.0115874,-1.9046833 0.9987929,-1.9089884 0.9853917,-1.9118384 0.9575784,-1.9151129 0.9575784,-1.9151129 0.9298495,-1.9120493 0.916489,-1.9093059 0.9037333,-1.9051086 0.8917244,-1.8991157 0.8803336,-1.8916369 0.8585821,-1.8742027 0.8585821,-1.8742027 0.8415537,-1.8519832 0.8342358,-1.8403921 0.8283532,-1.8282235 0.8242152,-1.8153529 0.8214967,-1.8019112 0.8184257,-1.7740757 0.8184257,-1.7740757 0.8213115,-1.746195 0.8239107,-1.7327047 0.8278976,-1.7197545 0.8336025,-1.707473 0.840733,-1.6957464 0.8573702,-1.673218 0.8573702,-1.673218 0.8790677,-1.6556174 0.89045,-1.6480933 0.9024725,-1.6421004 0.9152601,-1.6379375 0.9286617,-1.6352431 0.9564882,-1.632302 0.9564882,-1.632302 0.9824793,-1.6347456 0.9950597,-1.6370431 1.0071421,-1.6406313 1.0185985,-1.6458417 1.0295244,-1.6524269 1.0504918,-1.6678889 1.0504918,-1.6678889 1.0660986,-1.6865121 1.0730445,-1.6962558 1.0789615,-1.7065179 1.0836328,-1.7174076 1.087294,-1.7288064 1.0929328,-1.7524521 1.0929328,-1.7524521 1.0955476,-1.748429 1.0972993,-1.7439512 1.0972993,-1.7439512 1.0996097,-1.7350825 1.1011866,-1.7261085 1.1018803,-1.7078075 1.1018803,-1.7078075 1.0977923,-1.6864232 1.0930619,-1.6652968 1.0870465,-1.6446861 1.0791685,-1.6248231 1.0694988,-1.6056793 1.058482,-1.5870763 1.0342031,-1.5507716 1.0342031,-1.5285392 1.2168,-1.5285392 1.2168,-1.5532534 1.2168,-1.5532534 1.1927226,-1.5880942 1.1818401,-1.6059864 1.1723451,-1.6244446 1.1646921,-1.6436545 1.1589151,-1.6636298 1.1544226,-1.6841293 1.1505724,-1.7048908 1.1505724,-1.7048908 1.1508198,-1.7243476 1.1518457,-1.7339907 1.1535008,-1.7435743 1.1535008,-1.7435743 1.1559189,-1.7502602 1.1559189,-1.7502602 1.1617124,-1.7266769 1.1655714,-1.7154005 1.1705845,-1.7047422 1.176944,-1.6948049 1.1843673,-1.6854372 1.2009868,-1.6676512 1.2009868,-1.6676512 1.2214526,-1.6529014 1.232071,-1.6465254 1.2431519,-1.6413479 1.2548048,-1.6376524 1.2669316,-1.6351848 1.291975,-1.6322962 1.291975,-1.6322962 1.3200456,-1.635009 1.3335975,-1.6375667 1.3465693,-1.6415662 1.3588113,-1.6473791 1.370434,-1.654731 1.3926472,-1.6720003 1.3926472,-1.6720003 1.4094922,-1.6947531 1.4166708,-1.7066113 1.4223571,-1.7190477 1.4262787,-1.7321678 1.4287941,-1.7458325 1.4314814,-1.7740699 1.4314814,-1.7740699 1.4286717,-1.8019553 1.4260936,-1.8154343 1.4221076,-1.828357 1.4163663,-1.8405861 1.4091549,-1.8522342 1.3922818,-1.8745623 1.3922818,-1.8745623 1.3701722,-1.8919598 1.3586049,-1.8994045 1.3464224,-1.9053442 1.3335027,-1.9094797 1.3199897,-1.9121638 1.291975,-1.9151129 1.291975,-1.9151129 1.2652294,-1.9128338 1.2523306,-1.9105319 1.2400006,-1.9068353 1.2283985,-1.901354 1.2174337,-1.8943097 1.1965682,-1.8776123z"
        transform="matrix(-1,0,0,1,1.9,2.65)"
        stroke="rgb(0,0,0)"
        stroke-width="0.0000cm"
        stroke-linecap="round"
        stroke-linejoin="round"
        fill="rgb(0,0,0)" />
    <path
        id="bottomLeftCross"
        d="M-1.0534318,1.8923877 L-1.0534318,1.8923877 -1.059306,1.8869484 -1.059306,1.8869484 -1.0638174,1.8810975 -1.0638174,1.8810975 -1.0646504,1.8801744 -1.065236,1.8800372 -1.065586,1.8823732 -1.065586,1.8823732 -1.0483035,1.8735103 -1.0325795,1.8620892 -1.0325795,1.8620892 -1.0174622,1.8476691 -1.0046875,1.8311412 -1.0046875,1.8311412 -0.9946794,1.8130153 -0.9874652,1.7936059 -0.9874652,1.7936059 -0.9829603,1.7722834 -0.9815331,1.7505328 -0.9815331,1.7505328 -0.9842228,1.7236677 -0.9868368,1.710815 -0.9909737,1.6986583 -0.9970427,1.6873843 -1.0047745,1.6768702 -1.0136157,1.6668629 -1.0230116,1.6571091 -1.0230116,1.6571091 -1.0462778,1.638192 -1.0584613,1.6300323 -1.0713051,1.6234312 -1.0849603,1.6187453 -1.0992832,1.6156352 -1.1290418,1.6120412 -1.1290418,1.6120412 -1.1562599,1.6150426 -1.169389,1.6177164 -1.1819422,1.621798 -1.1937857,1.6276143 -1.2050434,1.6348625 -1.2265826,1.6517453 -1.2265826,1.6517453 -1.2435189,1.6734091 -1.2507874,1.6847305 -1.2566165,1.6966394 -1.2607034,1.7092591 -1.2633781,1.7224552 -1.2663736,1.7498079 -1.2663736,1.7498079 -1.2648409,1.7716944 -1.2634135,1.7824607 -1.2611927,1.7930147 -1.2579778,1.8033026 -1.2539244,1.813366 -1.2444196,1.8331186 -1.2444196,1.8331186 -1.2321066,1.8499224 -1.2254312,1.857704 -1.2181333,1.8647413 -1.2100507,1.8708405 -1.2013003,1.8761413 -1.182686,1.8854118 -1.182686,1.8854118 -1.1831658,1.8839913 -1.184243,1.8846637 -1.184243,1.8846637 -1.1883572,1.8903986 -1.1883572,1.8903986 -1.1926889,1.8944143 -1.1926889,1.8944143 -1.1939738,1.8955833 -1.1930078,1.8963888 -1.1930078,1.8963888 -1.2149056,1.8789226 -1.2263574,1.8713958 -1.2384126,1.8653167 -1.2512071,1.8610116 -1.2646083,1.8581616 -1.2924216,1.8548871 -1.2924216,1.8548871 -1.3201505,1.8579507 -1.333511,1.8606941 -1.3462667,1.8648914 -1.3582756,1.8708843 -1.3696664,1.8783631 -1.3914179,1.8957973 -1.3914179,1.8957973 -1.4084463,1.9180168 -1.4157642,1.9296079 -1.4216468,1.9417765 -1.4257848,1.9546471 -1.4285033,1.9680888 -1.4315743,1.9959243 -1.4315743,1.9959243 -1.4286885,2.023805 -1.4260893,2.0372953 -1.4221024,2.0502455 -1.4163975,2.062527 -1.409267,2.0742536 -1.3926298,2.096782 -1.3926298,2.096782 -1.3709323,2.1143826 -1.35955,2.1219067 -1.3475275,2.1278996 -1.3347399,2.1320625 -1.3213383,2.1347569 -1.2935118,2.137698 -1.2935118,2.137698 -1.2675207,2.1352544 -1.2549403,2.1329569 -1.2428579,2.1293687 -1.2314015,2.1241583 -1.2204756,2.1175731 -1.1995082,2.1021111 -1.1995082,2.1021111 -1.1839014,2.0834879 -1.1769555,2.0737442 -1.1710385,2.0634821 -1.1663672,2.0525924 -1.162706,2.0411936 -1.1570672,2.0175479 -1.1570672,2.0175479 -1.1544524,2.021571 -1.1527007,2.0260488 -1.1527007,2.0260488 -1.1503903,2.0349175 -1.1488134,2.0438915 -1.1481197,2.0621925 -1.1481197,2.0621925 -1.1522077,2.0835768 -1.1569381,2.1047032 -1.1629535,2.1253139 -1.1708315,2.1451769 -1.1805012,2.1643207 -1.191518,2.1829237 -1.2157969,2.2192284 -1.2157969,2.2414608 -1.0332,2.2414608 -1.0332,2.2167466 -1.0332,2.2167466 -1.0572774,2.1819058 -1.0681599,2.1640136 -1.0776549,2.1455554 -1.0853079,2.1263455 -1.0910849,2.1063702 -1.0955774,2.0858707 -1.0994276,2.0651092 -1.0994276,2.0651092 -1.0991802,2.0456524 -1.0981543,2.0360093 -1.0964992,2.0264257 -1.0964992,2.0264257 -1.0940811,2.0197398 -1.0940811,2.0197398 -1.0882876,2.0433231 -1.0844286,2.0545995 -1.0794155,2.0652578 -1.073056,2.0751951 -1.0656327,2.0845628 -1.0490132,2.1023488 -1.0490132,2.1023488 -1.0285474,2.1170986 -1.017929,2.1234746 -1.0068481,2.1286521 -0.9951952,2.1323476 -0.9830684,2.1348152 -0.958025,2.1377038 -0.958025,2.1377038 -0.9299544,2.134991 -0.9164025,2.1324333 -0.9034307,2.1284338 -0.8911887,2.1226209 -0.879566,2.115269 -0.8573528,2.0979997 -0.8573528,2.0979997 -0.8405078,2.0752469 -0.8333292,2.0633887 -0.8276429,2.0509523 -0.8237213,2.0378322 -0.8212059,2.0241675 -0.8185186,1.9959301 -0.8185186,1.9959301 -0.8213283,1.9680447 -0.8239064,1.9545657 -0.8278924,1.941643 -0.8336337,1.9294139 -0.8408451,1.9177658 -0.8577182,1.8954377 -0.8577182,1.8954377 -0.8798278,1.8780402 -0.8913951,1.8705955 -0.9035776,1.8646558 -0.9164973,1.8605203 -0.9300103,1.8578362 -0.958025,1.8548871 -0.958025,1.8548871 -0.9847706,1.8571662 -0.9976694,1.8594681 -1.0099994,1.8631647 -1.0216015,1.868646 -1.0325663,1.8756903 -1.0534318,1.8923877z"
        transform="matrix(-1,0,0,1,1.9,2.65)"
        stroke="rgb(0,0,0)"
        stroke-width="0.0000cm"
        stroke-linecap="round"
        stroke-linejoin="round"
        fill="rgb(0,0,0)" />
</svg>
